<svg width="512" height="512" viewBox="0 0 512 512" fill="none" xmlns="http://www.w3.org/2000/svg">
<path d="M256 512C397.385 512 512 397.385 512 256C512 114.615 397.385 0 256 0C114.615 0 0 114.615 0 256C0 397.385 114.615 512 256 512Z" fill="#3A67FA"/>
<path d="M497.228 341.857L381.093 225.723L292.777 239.299L224.388 178.035L130.73 191.068L111.005 342.158L270.639 511.577C375.51 505.661 463.494 436.629 497.228 341.857Z" fill="#2451D1"/>
<path d="M233.496 241.567C238.568 233.67 241.466 224.252 241.297 214.152C240.851 187.126 218.359 165.652 191.33 165.652H115.868C112.334 165.652 109.469 168.517 109.469 172.051V338.003C109.469 341.537 112.334 344.402 115.868 344.402H200.164C231.449 344.402 257.367 319.324 257.491 288.039C257.572 268.866 248.06 251.868 233.496 241.567ZM142.574 198.758H191.976C200.921 198.758 208.201 206.036 208.201 214.983C208.201 223.928 200.921 231.207 191.976 231.207H142.574V198.758ZM200.897 311.296H142.574V264.313H200.897C213.85 264.313 224.389 274.855 224.389 287.805C224.387 300.758 213.851 311.296 200.897 311.296Z" fill="white"/>
<path d="M402.532 276.27C402.532 237.63 372.077 206.191 334.641 206.191C297.203 206.191 266.748 237.63 266.748 276.27C266.748 314.913 297.206 346.348 334.641 346.348C357.355 346.348 378.463 334.705 391.104 315.2C392.678 312.766 394.111 310.225 395.381 307.606C396.302 305.705 394.903 303.491 392.79 303.489L359.417 303.405C358.681 303.405 357.978 303.705 357.45 304.22C351.147 310.347 343.423 313.245 334.643 313.245C318.056 313.245 304.154 300.84 300.692 284.304H395.891C399.559 284.304 402.533 281.329 402.533 277.658V276.269H402.532V276.27ZM334.641 239.297C346.786 239.297 357.493 245.956 363.716 256.012H305.562C311.787 245.957 322.493 239.297 334.641 239.297Z" fill="#D1D1D1"/>
<path d="M362.853 197.968H302.635C299.827 197.968 297.548 195.689 297.548 192.881V177.776C297.548 174.968 299.827 172.689 302.635 172.689H362.853C365.661 172.689 367.937 174.968 367.937 177.776V192.881C367.938 195.693 365.661 197.968 362.853 197.968Z" fill="#D1D1D1"/>
</svg>
