<svg width="534" height="534" viewBox="0 0 534 534" fill="none" xmlns="http://www.w3.org/2000/svg">
<path d="M533.666 444.778C533.666 493.667 493.666 533.667 444.777 533.667H89.2219C40.333 533.667 0.333008 493.667 0.333008 444.778V89.2224C0.333008 40.3335 40.333 0.333496 89.2219 0.333496H444.777C493.666 0.333496 533.666 40.3335 533.666 89.2224V444.778Z" fill="#563D7C"/>
<path d="M145.257 116.237H296.455C324.342 116.237 346.738 122.599 363.557 135.409C380.377 148.22 388.83 167.479 388.83 193.361C388.83 209.048 384.995 222.468 377.327 233.623C369.658 244.778 358.677 253.492 344.385 259.592V260.464C363.557 264.56 378.111 273.623 387.958 287.653C397.806 301.771 402.773 319.375 402.773 340.638C402.773 352.839 400.595 364.255 396.237 374.799C391.88 385.431 385.083 394.582 375.758 402.25C366.433 409.919 354.581 416.019 340.028 420.551C325.475 425.083 308.22 427.348 288.176 427.348H145.257V116.237ZM199.723 246.521H288.612C301.684 246.521 312.577 242.86 321.292 235.366C330.006 227.871 334.364 217.239 334.364 203.296C334.364 187.61 330.442 176.542 322.599 170.181C314.756 163.819 303.427 160.595 288.612 160.595H199.723V246.521ZM199.723 382.904H296.019C312.577 382.904 325.475 378.634 334.538 370.006C343.688 361.466 348.307 349.266 348.307 333.579C348.307 318.155 343.775 306.39 334.538 298.024C325.3 289.658 312.577 285.649 296.019 285.649H199.723V382.904Z" fill="white"/>
</svg>
