<svg width="663" height="655" viewBox="0 0 663 655" fill="none" xmlns="http://www.w3.org/2000/svg">
<path d="M321.7 550.8C325.297 548.368 329.559 547.11 333.9 547.2C337.503 547.284 341.024 548.294 344.124 550.133C347.224 551.972 349.799 554.578 351.6 557.7C353.915 555.344 356.69 553.489 359.752 552.251C362.814 551.012 366.098 550.416 369.4 550.5C375.224 550.625 380.805 552.864 385.1 556.8C386.644 551.045 390.075 545.976 394.844 542.403C399.613 538.831 405.443 536.964 411.4 537.1C414.737 537.183 418.028 537.895 421.1 539.2V539.8C421.5 524.1 434.1 511.6 449.5 511.1C446.537 504.985 445.392 498.147 446.2 491.4C447.7 479.1 455.3 469 465.6 463.7L465.7 463.8C460.4 458.3 457.2 450.8 457.4 442.5C457.536 436.153 459.71 430.018 463.6 425C457.907 421.789 453.554 416.643 451.334 410.495C449.114 404.348 449.172 397.608 451.5 391.5C445.357 390.872 439.678 387.948 435.599 383.313C431.52 378.677 429.342 372.673 429.5 366.5C429.502 365.228 429.602 363.957 429.8 362.7C428.418 362.983 427.01 363.117 425.6 363.1C421.231 362.971 417.028 361.401 413.646 358.633C410.263 355.866 407.891 352.057 406.9 347.8C403.859 349.842 400.261 350.89 396.6 350.8C388.4 350.5 381.6 344.8 379.8 337.1C378.029 338.083 376.024 338.566 374 338.5C372.33 338.463 370.69 338.053 369.2 337.3V337.1C367.416 343.188 364.072 348.703 359.5 353.1C361.737 354.148 363.565 355.906 364.7 358.1C365.536 359.749 365.955 361.577 365.92 363.425C365.885 365.273 365.398 367.084 364.5 368.7C367.588 369.399 370.433 370.91 372.743 373.075C375.052 375.241 376.743 377.983 377.639 381.019C378.536 384.056 378.607 387.276 377.844 390.349C377.081 393.422 375.512 396.236 373.3 398.5C377.437 400.311 380.826 403.488 382.9 407.5C387.9 417.2 384 429.1 374.3 434.1C376.474 436.095 378.269 438.467 379.6 441.1C385.8 453.2 381.1 468.1 369 474.1C367.104 475.091 365.087 475.831 363 476.3V476.4C364.645 479.59 365.645 483.074 365.942 486.651C366.239 490.228 365.828 493.829 364.732 497.247C363.636 500.665 361.876 503.834 359.554 506.571C357.232 509.309 354.393 511.561 351.2 513.2C346.67 515.529 341.575 516.534 336.5 516.1C336.87 522.164 335.371 528.195 332.206 533.381C329.041 538.567 324.362 542.657 318.8 545.1C320.139 546.764 321.156 548.663 321.8 550.7C321.767 550.702 321.733 550.702 321.7 550.7V550.8Z" fill="#B1361E"/>
<path d="M623.8 10H38.7C31.0883 10 23.7883 13.0237 18.406 18.406C13.0237 23.7883 10 31.0883 10 38.7V616.2C10 619.969 10.7423 623.701 12.1847 627.183C13.627 630.665 15.741 633.829 18.406 636.494C21.0711 639.159 24.2349 641.273 27.717 642.715C31.199 644.158 34.9311 644.9 38.7 644.9H623.8C627.569 644.9 631.301 644.158 634.783 642.715C638.265 641.273 641.429 639.159 644.094 636.494C646.759 633.829 648.873 630.665 650.315 627.183C651.758 623.701 652.5 619.969 652.5 616.2V38.7C652.5 34.9311 651.758 31.199 650.315 27.717C648.873 24.2349 646.759 21.0711 644.094 18.406C641.429 15.741 638.265 13.627 634.783 12.1847C631.301 10.7423 627.569 10 623.8 10V10ZM597.3 398.8C593.5 404.8 587.5 408.8 581.1 410.4C584.269 414.118 586.238 418.709 586.749 423.567C587.26 428.426 586.288 433.325 583.961 437.621C581.635 441.917 578.062 445.408 573.714 447.636C569.366 449.863 564.446 450.722 559.6 450.1C559.543 449.732 559.476 449.365 559.4 449C560.139 452.743 559.844 456.616 558.547 460.204C557.25 463.792 555.001 466.959 552.04 469.364C549.079 471.77 545.519 473.324 541.741 473.859C537.964 474.393 534.112 473.889 530.6 472.4C530.334 475.069 529.443 477.639 528 479.9C525.3 484.2 521 486.9 516.5 487.6C517.401 491.602 517.604 495.729 517.1 499.8C515.997 509.201 511.206 517.779 503.78 523.649C496.354 529.518 486.902 532.198 477.5 531.1H478.5C479.597 534.385 480.105 537.838 480 541.3C479.79 549.107 476.494 556.512 470.832 561.893C465.171 567.273 457.608 570.188 449.8 570C445.414 569.887 441.109 568.793 437.2 566.8C436.626 571.789 434.651 576.513 431.504 580.426C428.358 584.34 424.168 587.282 419.419 588.914C414.67 590.546 409.556 590.8 404.668 589.648C399.781 588.495 395.319 585.982 391.8 582.4C390.242 587.03 387.32 591.079 383.418 594.017C379.515 596.955 374.815 598.643 369.936 598.859C365.056 599.076 360.225 597.81 356.078 595.229C351.93 592.649 348.661 588.874 346.7 584.4C343.825 586.759 340.375 588.312 336.702 588.901C333.03 589.489 329.267 589.092 325.799 587.749C322.33 586.407 319.281 584.167 316.962 581.259C314.643 578.352 313.137 574.88 312.6 571.2C310.171 572.374 307.498 572.957 304.8 572.9C296.1 572.7 289 565.9 288.2 557.4L288.3 557.2C284.287 563.534 278.371 568.435 271.4 571.2C262.78 574.65 253.156 574.606 244.568 571.077C235.98 567.549 229.104 560.813 225.4 552.3C223.052 554.832 220.276 556.931 217.2 558.5C210.248 562.034 202.179 562.672 194.758 560.273C187.337 557.874 181.168 552.635 177.6 545.7C175.569 541.801 174.441 537.494 174.3 533.1C169.651 534.95 164.574 535.451 159.653 534.546C154.731 533.64 150.165 531.365 146.479 527.981C142.793 524.598 140.135 520.243 138.812 515.417C137.489 510.592 137.554 505.49 139 500.7C134.192 501.554 129.238 500.934 124.789 498.92C120.34 496.906 116.605 493.594 114.073 489.418C111.542 485.242 110.333 480.398 110.605 475.523C110.878 470.647 112.619 465.968 115.6 462.1C112.145 460.705 109.124 458.416 106.846 455.468C104.568 452.52 103.115 449.019 102.637 445.324C102.159 441.629 102.672 437.874 104.124 434.443C105.576 431.012 107.915 428.029 110.9 425.8C108.72 424.236 106.939 422.18 105.7 419.8C104.398 417.27 103.744 414.457 103.796 411.612C103.848 408.767 104.606 405.98 106 403.5L106.5 403.6C101.667 402.422 97.136 400.242 93.2 397.2C85.8135 391.511 80.9458 383.157 79.6377 373.926C78.3297 364.694 80.6849 355.318 86.2 347.8C82.8638 347.056 79.6828 345.737 76.8 343.9C70.2148 339.692 65.5684 333.042 63.8811 325.412C62.1937 317.781 63.6031 309.793 67.8 303.2C70.1788 299.508 73.3571 296.398 77.1 294.1C73.1048 291.043 70.0585 286.915 68.3146 282.196C66.5708 277.477 66.2008 272.361 67.2478 267.44C68.2947 262.519 70.7156 257.996 74.2295 254.396C77.7434 250.796 82.2062 248.266 87.1 247.1C83.957 243.372 82.0134 238.782 81.5238 233.931C81.0342 229.079 82.0216 224.193 84.3564 219.913C86.6913 215.632 90.2648 212.157 94.6087 209.942C98.9525 207.727 103.864 206.876 108.7 207.5L108.8 208.6C108.039 204.85 108.317 200.963 109.605 197.36C110.892 193.756 113.14 190.573 116.104 188.154C119.069 185.735 122.638 184.172 126.427 183.633C130.215 183.095 134.079 183.602 137.6 185.1C137.866 182.431 138.757 179.861 140.2 177.6C142.9 173.4 147.2 170.7 151.8 169.9C150.877 165.936 150.64 161.844 151.1 157.8C152.183 148.553 156.835 140.096 164.064 134.23C171.294 128.364 180.529 125.554 189.8 126.4C188.681 123.153 188.139 119.734 188.2 116.3C188.7 100 202.2 87.1 218.4 87.6C222.779 87.6787 227.084 88.738 231 90.7C231.59 85.7197 233.577 81.0077 236.73 77.1077C239.883 73.2077 244.074 70.2785 248.821 68.6581C253.567 67.0377 258.674 66.7921 263.554 67.9496C268.434 69.1071 272.887 71.6205 276.4 75.2C277.947 70.5656 280.86 66.5078 284.756 63.5604C288.652 60.6129 293.35 58.9138 298.23 58.6866C303.11 58.4593 307.945 59.7146 312.099 62.2872C316.252 64.8598 319.53 68.6294 321.5 73.1C324.375 70.7409 327.825 69.1877 331.498 68.5992C335.17 68.0108 338.933 68.4082 342.401 69.7508C345.87 71.0934 348.919 73.3331 351.238 76.2407C353.557 79.1484 355.063 82.6198 355.6 86.3C358.038 85.1603 360.71 84.6121 363.4 84.7C372.2 84.9 379.2 91.7 380.1 100.1L379.9 100.4C383.892 94.0237 389.812 89.0849 396.8 86.3C414.8 79 435.2 87.5 442.8 105.3C445.14 102.732 447.916 100.599 451 99C457.962 95.4342 466.056 94.7794 473.5 97.1798C480.945 99.5801 487.132 104.839 490.7 111.8C492.697 115.707 493.79 120.013 493.9 124.4C498.564 122.512 503.668 121.985 508.619 122.881C513.57 123.776 518.166 126.058 521.872 129.461C525.579 132.864 528.244 137.248 529.559 142.105C530.874 146.962 530.784 152.092 529.3 156.9C534.091 156.067 539.023 156.697 543.451 158.708C547.878 160.719 551.598 164.018 554.124 168.173C556.65 172.329 557.865 177.15 557.611 182.006C557.357 186.863 555.646 191.53 552.7 195.4C556.155 196.795 559.176 199.084 561.454 202.032C563.732 204.98 565.185 208.481 565.663 212.176C566.141 215.871 565.628 219.626 564.176 223.057C562.724 226.488 560.385 229.471 557.4 231.7C559.544 233.276 561.29 235.33 562.5 237.7C563.82 240.242 564.483 243.074 564.431 245.938C564.378 248.802 563.612 251.608 562.2 254.1C566.884 255.3 571.274 257.443 575.1 260.4C582.443 266.102 587.272 274.442 588.56 283.649C589.849 292.856 587.495 302.202 582 309.7C585.343 310.475 588.524 311.828 591.4 313.7C597.958 317.907 602.584 324.538 604.271 332.144C605.957 339.751 604.565 347.716 600.4 354.3C598.062 358.017 594.917 361.162 591.2 363.5C596.431 367.567 599.955 373.44 601.083 379.969C602.211 386.498 600.862 393.213 597.3 398.8V398.8Z" fill="#B1361E"/>
<path d="M316.6 99.8C314.285 102.156 311.51 104.011 308.448 105.249C305.386 106.488 302.102 107.084 298.8 107C293.023 106.879 287.484 104.677 283.2 100.8C281.633 106.553 278.179 111.613 273.391 115.168C268.604 118.722 262.761 120.565 256.8 120.4C253.47 120.349 250.179 119.67 247.1 118.4C246.752 125.782 243.637 132.763 238.374 137.952C233.111 143.14 226.087 146.157 218.7 146.4C221.663 152.515 222.808 159.353 222 166.1C221.308 171.961 219.174 177.559 215.788 182.393C212.403 187.227 207.871 191.146 202.6 193.8C207.9 199.3 211 206.8 210.8 215.1C210.642 221.413 208.47 227.51 204.6 232.5C213.2 237.3 218.8 246.5 218.6 257C218.482 260.086 217.84 263.13 216.7 266C222.86 266.629 228.554 269.568 232.635 274.224C236.717 278.881 238.884 284.91 238.7 291.1C238.693 292.339 238.593 293.576 238.4 294.8C239.785 294.551 241.193 294.45 242.6 294.5C251.8 294.7 259.4 301.2 261.4 309.8C264.412 307.778 267.973 306.731 271.6 306.8C279.9 307 286.6 312.8 288.5 320.5C290.047 319.63 291.778 319.14 293.552 319.07C295.325 319.001 297.09 319.354 298.7 320.1C299.87 313.853 302.663 308.025 306.8 303.2C305.462 302.189 304.369 300.89 303.6 299.4C302.766 297.772 302.339 295.967 302.356 294.138C302.374 292.309 302.835 290.511 303.7 288.9C300.601 288.198 297.746 286.679 295.432 284.5C293.118 282.322 291.43 279.564 290.542 276.513C289.654 273.462 289.599 270.228 290.383 267.149C291.167 264.069 292.761 261.255 295 259C290.863 257.189 287.474 254.012 285.4 250C284.147 247.546 283.419 244.858 283.264 242.108C283.109 239.357 283.529 236.604 284.499 234.025C285.468 231.446 286.965 229.098 288.894 227.131C290.823 225.163 293.141 223.62 295.7 222.6C295.157 222.81 294.623 223.043 294.1 223.3C291.891 221.313 290.061 218.941 288.7 216.3C286.972 212.949 286.04 209.245 285.978 205.476C285.915 201.706 286.723 197.973 288.339 194.567C289.955 191.161 292.335 188.174 295.294 185.838C298.254 183.502 301.712 181.881 305.4 181.1V181C302.102 174.579 301.481 167.112 303.674 160.235C305.866 153.357 310.694 147.627 317.1 144.3C321.65 141.918 326.782 140.877 331.9 141.3C331.547 135.555 332.872 129.831 335.712 124.824C338.553 119.818 342.787 115.744 347.9 113.1C348.427 112.851 348.96 112.618 349.5 112.4C348.197 110.728 347.213 108.829 346.6 106.8C342.992 109.197 338.73 110.42 334.4 110.3C330.787 110.206 327.259 109.18 324.159 107.323C321.058 105.466 318.489 102.841 316.7 99.7L316.6 99.8ZM531.3 316.8C526.627 313.172 522.928 308.44 520.537 303.029C518.145 297.618 517.136 291.698 517.6 285.8C510.2 287.5 502.1 286.4 495.2 281.9C489.837 278.52 485.701 273.507 483.4 267.6C479.093 270.042 474.203 271.268 469.253 271.144C464.303 271.021 459.48 269.554 455.3 266.9C452.654 265.214 450.319 263.082 448.4 260.6C440.8 270.8 426.5 273.6 415.6 266.6C414.546 265.943 413.544 265.207 412.6 264.4C412.137 265.727 411.533 267.001 410.8 268.2C408.43 271.881 404.907 274.672 400.781 276.138C396.656 277.603 392.161 277.66 388 276.3C388.149 279.94 387.171 283.537 385.2 286.6C380.8 293.6 372.3 296.4 364.8 294C364.758 296.018 364.17 297.988 363.1 299.7C362.5 300.6 361.8 301.4 361.1 302C365.075 306.284 367.956 311.464 369.5 317.1C371.059 316.352 372.771 315.976 374.5 316C376.341 316.051 378.142 316.552 379.745 317.458C381.349 318.365 382.707 319.649 383.7 321.2C385.789 318.817 388.475 317.035 391.483 316.037C394.49 315.04 397.71 314.863 400.808 315.526C403.907 316.188 406.772 317.666 409.109 319.806C411.446 321.946 413.169 324.671 414.1 327.7C417.674 324.941 422.087 323.494 426.6 323.6C437.6 323.8 446.1 332.9 445.9 343.8C445.867 344.47 445.801 345.137 445.7 345.8L445.9 343.9C448.692 342.911 451.639 342.437 454.6 342.5C457.835 342.565 461.025 343.269 463.986 344.574C466.947 345.878 469.62 347.756 471.852 350.098C474.083 352.441 475.828 355.203 476.986 358.224C478.145 361.245 478.693 364.466 478.6 367.7C478.542 369.834 478.205 371.952 477.6 374C492.7 374.4 504.6 386.9 504.2 402C504.075 407.095 502.515 412.051 499.7 416.3C504.975 418.722 509.425 422.636 512.499 427.559C515.574 432.482 517.139 438.197 517 444C516.881 447.322 516.205 450.601 515 453.7L515.1 453.5L517.8 454C517.6 449.657 518.753 445.36 521.1 441.7C523.043 438.654 525.739 436.161 528.927 434.462C532.116 432.763 535.688 431.915 539.3 432C538.469 428.797 538.306 425.457 538.822 422.188C539.338 418.919 540.522 415.791 542.3 413C545.448 408.149 550.242 404.598 555.8 403C551.642 398.7 549.055 393.124 548.457 387.173C547.858 381.221 549.282 375.242 552.5 370.2C554.324 367.385 556.665 364.942 559.4 363C553.212 358.9 548.803 352.612 547.06 345.396C545.316 338.181 546.367 330.573 550 324.1C543.229 323.498 536.773 320.964 531.4 316.8H531.3Z" fill="#B1361E"/>
<path d="M532.7 236.4C533.329 235.358 534.066 234.386 534.9 233.5C531.078 231.487 527.97 228.344 526 224.5C524.351 221.287 523.558 217.704 523.698 214.095C523.838 210.487 524.906 206.975 526.8 203.9C520.6 202.1 515.2 197.9 512 191.7C509.341 186.557 508.63 180.626 510 175C504.202 176.399 498.101 175.809 492.679 173.325C487.256 170.84 482.826 166.605 480.1 161.3C478.568 158.306 477.618 155.048 477.3 151.7C470.653 154.937 463.03 155.552 455.951 153.42C448.871 151.289 442.855 146.569 439.1 140.2C435.149 145.716 429.701 149.984 423.4 152.5C417.921 154.693 411.985 155.493 406.121 154.83C400.258 154.167 394.65 152.061 389.8 148.7V148.4C388.638 152.188 386.731 155.706 384.189 158.746C381.647 161.786 378.523 164.286 375 166.1C369.379 169.034 362.964 170.086 356.7 169.1C356.614 174.034 355.193 178.853 352.587 183.044C349.981 187.235 346.288 190.641 341.9 192.9C339.148 194.328 336.171 195.275 333.1 195.7C338 207.4 333.1 221.1 321.6 227C320.506 227.585 319.369 228.086 318.2 228.5C319.088 229.582 319.859 230.755 320.5 232C324.7 240.2 322.6 250 316 255.8C319.223 257.501 321.842 260.155 323.5 263.4C327.3 270.7 325.5 279.4 319.5 284.7C321.242 285.765 322.66 287.287 323.6 289.1C324.1 290 324.4 290.9 324.6 291.8C330.471 290.157 336.661 290.02 342.6 291.4C342.865 290.053 343.373 288.765 344.1 287.6C345.084 286.063 346.426 284.787 348.01 283.881C349.595 282.976 351.376 282.467 353.2 282.4C352.229 279.376 352.085 276.148 352.783 273.049C353.481 269.951 354.995 267.096 357.168 264.78C359.341 262.464 362.094 260.772 365.142 259.878C368.189 258.985 371.42 258.924 374.5 259.7C374.005 255.216 375.064 250.697 377.5 246.9C383.3 237.7 395.5 235 404.7 240.9C405.324 237.982 406.477 235.203 408.1 232.7C409.829 229.963 412.083 227.595 414.733 225.735C417.382 223.874 420.374 222.557 423.536 221.86C426.697 221.162 429.966 221.098 433.152 221.672C436.338 222.245 439.38 223.444 442.1 225.2C443.87 226.354 445.483 227.732 446.9 229.3C448.823 226.272 451.323 223.652 454.259 221.591C457.195 219.53 460.508 218.067 464.009 217.287C467.51 216.507 471.131 216.425 474.664 217.045C478.197 217.664 481.573 218.975 484.6 220.9C488.936 223.644 492.403 227.563 494.6 232.2C504.1 225.8 516.9 225.2 527.1 231.8C529.147 233.099 531.028 234.644 532.7 236.4V236.4ZM344.7 368.4C343.64 366.443 343.188 364.215 343.4 362C340.457 362.74 337.434 363.11 334.4 363.1C331.4 363.1 328.5 362.8 325.8 362.1C326.265 364.841 325.695 367.656 324.2 370C323.206 371.551 321.849 372.835 320.245 373.742C318.642 374.648 316.841 375.149 315 375.2C315.939 378.208 316.063 381.412 315.358 384.483C314.654 387.555 313.147 390.384 310.991 392.683C308.835 394.981 306.107 396.666 303.087 397.565C300.067 398.464 296.862 398.545 293.8 397.8C294.295 402.284 293.236 406.803 290.8 410.6C287.969 415.008 283.506 418.115 278.389 419.24C273.272 420.364 267.918 419.415 263.5 416.6C262.875 419.518 261.723 422.296 260.1 424.8C258.371 427.523 256.121 429.879 253.48 431.731C250.838 433.583 247.857 434.895 244.708 435.591C241.558 436.288 238.302 436.356 235.125 435.791C231.949 435.227 228.916 434.04 226.2 432.3C224.395 431.152 222.748 429.774 221.3 428.2V428.3C217.4 434.399 211.238 438.7 204.168 440.256C197.099 441.813 189.7 440.498 183.6 436.6C179.278 433.883 175.812 430.001 173.6 425.4C164.1 431.8 151.4 432.4 141.1 425.8C139.053 424.5 137.172 422.955 135.5 421.2C134.864 422.206 134.127 423.144 133.3 424C137.159 425.997 140.303 429.141 142.3 433C143.934 436.221 144.71 439.809 144.552 443.418C144.395 447.027 143.309 450.534 141.4 453.6C147.6 455.4 153.1 459.6 156.2 465.8C158.859 470.943 159.569 476.874 158.2 482.5C164.024 481.084 170.155 481.676 175.6 484.181C181.046 486.686 185.485 490.956 188.2 496.3C189.687 499.269 190.603 502.492 190.9 505.8C197.557 502.533 205.204 501.903 212.306 504.035C219.409 506.168 225.443 510.906 229.2 517.3C233.15 511.784 238.599 507.515 244.9 505C256.4 500.4 268.9 502.2 278.5 508.8C279.68 505.073 281.586 501.616 284.109 498.629C286.632 495.643 289.722 493.186 293.2 491.4C298.832 488.5 305.247 487.483 311.5 488.5C311.6 478.8 317 469.4 326.3 464.6C329.084 463.163 332.094 462.216 335.2 461.8C330.2 450.1 335.2 436.4 346.6 430.5C347.729 429.944 348.899 429.476 350.1 429.1C349.17 427.992 348.365 426.784 347.7 425.5C343.5 417.3 345.7 407.6 352.2 401.8C348.977 400.099 346.358 397.445 344.7 394.2C341 386.8 342.8 378.1 348.7 372.8C346.994 371.72 345.612 370.2 344.7 368.4Z" fill="#B1361E"/>
<path d="M300.4 339.5C298.437 340.865 296.09 341.565 293.7 341.5C291.868 341.46 290.073 340.974 288.47 340.086C286.868 339.197 285.505 337.932 284.5 336.4C282.408 338.757 279.727 340.516 276.732 341.498C273.738 342.48 270.536 342.649 267.454 341.988C264.372 341.327 261.522 339.859 259.193 337.736C256.864 335.612 255.141 332.908 254.2 329.9C250.586 332.645 246.135 334.058 241.6 333.9C230.7 333.7 222.1 324.6 222.4 313.7C219.571 314.667 216.588 315.107 213.6 315C209.833 314.911 206.138 313.955 202.801 312.206C199.464 310.456 196.575 307.961 194.36 304.913C192.144 301.866 190.662 298.348 190.027 294.634C189.392 290.921 189.622 287.11 190.7 283.5H190.6C175.6 283.2 163.6 270.7 164 255.6C164.126 250.505 165.685 245.549 168.5 241.3C163.263 238.849 158.855 234.922 155.817 230.001C152.779 225.081 151.244 219.381 151.4 213.6C151.466 210.323 152.074 207.079 153.2 204C152.288 203.905 151.385 203.738 150.5 203.5C150.7 207.843 149.547 212.14 147.2 215.8C145.257 218.846 142.561 221.339 139.373 223.038C136.185 224.737 132.612 225.585 129 225.5C130.6 231.8 129.7 238.6 126 244.5C122.894 249.369 118.136 252.955 112.6 254.6C120.9 263.3 122.6 276.8 115.8 287.4C114.006 290.206 111.699 292.649 109 294.6C115.162 298.697 119.553 304.968 121.295 312.16C123.038 319.352 122.004 326.937 118.4 333.4C125.147 334.05 131.566 336.618 136.9 340.8C141.558 344.418 145.248 349.134 147.639 354.526C150.029 359.918 151.047 365.819 150.6 371.7C158.1 370 166.1 371.2 173.1 375.7C178.409 379.07 182.507 384.044 184.8 389.9C189.116 387.472 194.011 386.264 198.961 386.405C203.911 386.546 208.729 388.031 212.9 390.7C215.538 392.356 217.872 394.453 219.8 396.9C227.4 386.7 241.8 383.9 252.6 390.9C253.658 391.589 254.66 392.358 255.6 393.2C256.095 391.869 256.732 390.595 257.5 389.4C262.5 381.6 271.9 378.5 280.3 381.2C280.142 377.605 281.084 374.046 283 371C287.5 364 296 361.3 303.4 363.7C303.44 361.579 304.082 359.514 305.25 357.743C306.419 355.973 308.066 354.571 310 353.7C305.741 349.855 302.452 345.058 300.4 339.7V339.5Z" fill="#B1361E"/>
</svg>
