<svg width="103" height="145" viewBox="0 0 103 145" fill="none" xmlns="http://www.w3.org/2000/svg">
<path d="M102.372 28.3972L93.0453 132.876L51.1231 144.498L9.31644 132.892L0 28.3972H102.372Z" fill="#264DE4"/>
<path d="M85.0609 126.223L93.0309 36.9412H51.1858V135.614L85.0609 126.223Z" fill="#2965F1"/>
<path d="M21.3577 75.6968L22.5064 88.5125H51.1858V75.6968H21.3577Z" fill="#EBEBEB"/>
<path d="M51.1858 49.7572H51.1415H19.0497L20.2147 62.5732H51.1858V49.7572Z" fill="#EBEBEB"/>
<path d="M51.1858 122.315V108.981L51.1296 108.996L36.8565 105.142L35.9441 94.9206H23.079L24.8745 115.043L51.1268 122.331L51.1858 122.315Z" fill="#EBEBEB"/>
<path d="M24.0925 0H39.6147V6.49111H30.5836V12.9822H39.6147V19.4733H24.0925V0Z" fill="black"/>
<path d="M42.7191 0H58.2414V5.64444H49.2102V6.77333H58.2414V19.7556H42.7191V13.8289H51.7502V12.7H42.7191V0Z" fill="black"/>
<path d="M61.3458 0H76.868V5.64444H67.8369V6.77333H76.868V19.7556H61.3458V13.8289H70.3769V12.7H61.3458V0Z" fill="black"/>
<path d="M66.9228 88.5125L65.4352 105.134L51.1415 108.992V122.325L77.4147 115.043L80.619 79.1382L80.9317 75.6968L83.2454 49.7572H51.1415L51.1415 62.5732H69.2003L68.0342 75.6968H51.1415V88.5125H66.9228Z" fill="white"/>
</svg>
