<svg width="583" height="874" viewBox="0 0 583 874" fill="none" xmlns="http://www.w3.org/2000/svg">
<path d="M145.779 874C226.217 874 291.5 808.741 291.5 728.333V582.667H145.779C65.341 582.667 0.0581055 647.925 0.0581055 728.333C0.0581055 808.741 65.341 874 145.779 874Z" fill="#0ACF83"/>
<path d="M0.0581055 437C0.0581055 356.592 65.341 291.333 145.779 291.333H291.5V582.667H145.779C65.341 582.667 0.0581055 517.408 0.0581055 437Z" fill="#A259FF"/>
<path d="M0.0581055 145.667C0.0581055 65.2587 65.341 0 145.779 0H291.5V291.333H145.779C65.341 291.333 0.0581055 226.075 0.0581055 145.667Z" fill="#F24E1E"/>
<path d="M291.5 0H437.221C517.659 0 582.942 65.2587 582.942 145.667C582.942 226.075 517.659 291.333 437.221 291.333H291.5V0Z" fill="#FF7262"/>
<path d="M582.942 437C582.942 517.408 517.659 582.667 437.221 582.667C356.783 582.667 291.5 517.408 291.5 437C291.5 356.592 356.783 291.333 437.221 291.333C517.659 291.333 582.942 356.592 582.942 437Z" fill="#1ABCFE"/>
</svg>
