<svg width="200" height="200" viewBox="0 0 200 200" fill="none" xmlns="http://www.w3.org/2000/svg">
<rect width="200" height="200" fill="#0A0A23"/>
<path d="M58.6623 55.6748C59.1078 56.1196 59.5534 56.7602 59.5553 57.4046C59.5572 58.5184 58.2527 60.0296 55.8409 62.5121C45.7842 72.2196 40.7255 84.1074 40.7596 98.4453C40.7975 114.308 46.1179 127.047 56.459 136.92C58.6338 138.868 59.5269 140.4 59.5307 141.712C59.5307 142.354 59.0889 143.023 58.6452 143.668C58.2281 144.115 57.3388 144.563 56.6979 144.563C54.3051 144.569 50.9566 141.733 46.5843 136.215C38.071 125.754 34.222 114.203 34.0058 98.4605C33.8067 82.7103 38.7327 72.0295 48.3742 61.0028C51.844 57.0624 54.7374 55.0152 56.7112 55.0114C57.3521 55.0095 58.0195 55.23 58.6623 55.6748Z" fill="white"/>
<path d="M58.6623 55.6748C59.1078 56.1196 59.5534 56.7602 59.5553 57.4046C59.5572 58.5184 58.2527 60.0296 55.8409 62.5121C45.7842 72.2196 40.7255 84.1074 40.7596 98.4453C40.7975 114.308 46.1179 127.047 56.459 136.92C58.6338 138.868 59.5269 140.4 59.5307 141.712C59.5307 142.354 59.0889 143.023 58.6452 143.668C58.2281 144.115 57.3388 144.563 56.6979 144.563C54.3051 144.569 50.9566 141.733 46.5843 136.215C38.071 125.754 34.222 114.203 34.0058 98.4605C33.8067 82.7103 38.7327 72.0295 48.3742 61.0028C51.844 57.0624 54.7374 55.0152 56.7112 55.0114C57.3521 55.0095 58.0195 55.23 58.6623 55.6748Z" fill="white"/>
<path d="M111.485 101.283C107.706 100.316 123.212 81.9499 95.6526 59.9612C95.6526 59.9612 99.2684 71.4783 81.0359 97.1794C62.7938 122.871 89.1472 138.176 89.1472 138.176C89.1472 138.176 76.7792 131.569 91.1571 108.044C93.73 103.777 97.0974 99.9127 101.278 91.2146C101.278 91.2146 104.979 96.4513 103.047 107.805C100.158 124.962 115.578 120.052 115.817 120.292C121.204 126.65 111.356 137.825 110.757 138.176C110.159 138.519 138.881 120.856 118.476 94.2749C117.078 95.6758 115.262 102.253 111.485 101.283Z" fill="white"/>
<path d="M111.485 101.283C107.706 100.316 123.212 81.9499 95.6526 59.9612C95.6526 59.9612 99.2684 71.4783 81.0359 97.1794C62.7938 122.871 89.1472 138.176 89.1472 138.176C89.1472 138.176 76.7792 131.569 91.1571 108.044C93.73 103.777 97.0974 99.9127 101.278 91.2146C101.278 91.2146 104.979 96.4513 103.047 107.805C100.158 124.962 115.578 120.052 115.817 120.292C121.204 126.65 111.356 137.825 110.757 138.176C110.159 138.519 138.881 120.856 118.476 94.2749C117.078 95.6758 115.262 102.253 111.485 101.283Z" fill="white"/>
<path d="M141.792 55.6634C141.346 56.1082 140.9 56.7488 140.898 57.3932C140.897 58.507 142.201 60.0182 144.613 62.5007C154.67 72.2063 159.728 84.096 159.694 98.4339C159.656 114.296 154.336 127.036 143.995 136.909C141.82 138.857 140.927 140.389 140.923 141.701C140.923 142.343 141.365 143.012 141.809 143.656C142.226 144.103 143.115 144.55 143.756 144.552C146.149 144.557 149.497 141.721 153.869 136.203C162.383 125.743 166.232 114.192 166.448 98.4491C166.647 82.6989 161.721 72.0181 152.08 60.9914C148.61 57.051 145.716 55.0038 143.743 55C143.102 54.9981 142.434 55.2186 141.792 55.6634Z" fill="white"/>
<path d="M141.792 55.6634C141.346 56.1082 140.9 56.7488 140.898 57.3932C140.897 58.507 142.201 60.0182 144.613 62.5007C154.67 72.2063 159.728 84.096 159.694 98.4339C159.656 114.296 154.336 127.036 143.995 136.909C141.82 138.857 140.927 140.389 140.923 141.701C140.923 142.343 141.365 143.012 141.809 143.656C142.226 144.103 143.115 144.55 143.756 144.552C146.149 144.557 149.497 141.721 153.869 136.203C162.383 125.743 166.232 114.192 166.448 98.4491C166.647 82.6989 161.721 72.0181 152.08 60.9914C148.61 57.051 145.716 55.0038 143.743 55C143.102 54.9981 142.434 55.2186 141.792 55.6634Z" fill="white"/>
</svg>
