<svg width="256" height="125" viewBox="0 0 256 125" fill="none" xmlns="http://www.w3.org/2000/svg">
<path d="M184.315 67.7044C197.784 59.9684 211.217 52.1694 224.732 44.5134C237.56 37.2454 252.653 43.9484 255.561 58.0924C257.244 66.2744 253.591 75.1134 246.204 79.4184C221.986 93.5314 197.733 107.588 173.359 121.43C165.815 125.714 158.044 124.926 151.169 119.676C144.185 114.346 141.984 106.994 143.622 98.4374C145.492 91.9234 149.772 87.5684 155.609 84.3104C165.26 78.9244 174.754 73.2544 184.315 67.7044Z" fill="#FBBC04"/>
<path d="M194.203 62.0791C180.768 54.2831 167.299 46.5481 153.911 38.6731C141.202 31.1971 139.462 14.7751 150.256 5.18308C156.5 -0.363922 165.981 -1.62092 173.403 2.62408C197.735 16.5411 222.035 30.5171 246.209 44.7041C253.691 49.0951 256.893 56.2201 255.786 64.7991C254.661 73.5111 249.395 79.0931 241.166 81.9541C234.589 83.5921 228.678 82.0621 222.938 78.6361C213.447 72.9711 203.79 67.5831 194.203 62.0791Z" fill="#0F9D58"/>
<path d="M71.7518 56.5629C63.1308 61.4609 54.5048 66.3499 45.8928 71.2629C40.8548 74.1369 35.8728 77.1089 30.8088 79.9349C20.6058 85.6299 8.48381 82.2919 2.69881 72.2609C-2.82219 62.6889 0.35081 50.2789 10.1768 44.5429C34.2018 30.5199 58.2888 16.5989 82.4628 2.83386C89.8768 -1.38814 97.5688 -0.857141 104.425 4.18986C111.661 9.51686 114.03 17.0129 112.405 25.8009C111.397 27.9269 110.795 30.4199 109.286 32.0949C106.831 34.8199 104.041 37.4289 100.935 39.3449C91.3228 45.2719 81.4958 50.8499 71.7518 56.5629Z" fill="#EA4335"/>
<path d="M61.867 62.0571C70.42 67.0731 78.967 72.1001 87.528 77.1021C92.535 80.0281 97.6 82.8571 102.579 85.8281C112.613 91.8181 115.784 103.984 109.989 114.009C104.459 123.577 92.126 127.035 82.245 121.392C58.088 107.597 33.989 93.6991 9.98103 79.6461C2.61803 75.3361 -0.767972 68.4091 0.175028 59.9481C1.17003 51.0171 6.47703 45.2181 14.9 42.2311C17.245 42.0421 19.705 41.3161 21.911 41.7861C25.498 42.5501 29.153 43.6611 32.365 45.3931C42.304 50.7531 52.048 56.4751 61.867 62.0571Z" fill="#4285F4"/>
</svg>
