<svg width="28" height="28" viewBox="0 0 28 28" fill="none" xmlns="http://www.w3.org/2000/svg">
<path d="M0 9.95556C0 6.47078 0 4.7284 0.678182 3.39739C1.27473 2.22661 2.22661 1.27473 3.39739 0.678182C4.7284 0 6.47078 0 9.95556 0H18.0444C21.5292 0 23.2716 0 24.6026 0.678182C25.7734 1.27473 26.7253 2.22661 27.3218 3.39739C28 4.7284 28 6.47078 28 9.95556V18.0444C28 21.5292 28 23.2716 27.3218 24.6026C26.7253 25.7734 25.7734 26.7253 24.6026 27.3218C23.2716 28 21.5292 28 18.0444 28H9.95556C6.47078 28 4.7284 28 3.39739 27.3218C2.22661 26.7253 1.27473 25.7734 0.678182 24.6026C0 23.2716 0 21.5292 0 18.0444V9.95556Z" fill="white"/>
<path d="M20.0513 6.52295L14.0642 11.1954L7.94019 6.52295V6.52421L7.94758 6.53053V13.0732L13.9951 17.8466L20.0513 13.2575V6.52295Z" fill="#EA4335"/>
<path d="M21.6235 5.38639L20.0511 6.52292V13.2575L24.9987 9.45897V7.17074C24.9987 7.17074 24.3981 3.90258 21.6235 5.38639Z" fill="#FBBC05"/>
<path d="M20.0511 13.2577V21.9926H23.8432C23.8432 21.9926 24.9222 21.8814 24.9999 20.6514V9.45911L20.0511 13.2577Z" fill="#34A853"/>
<path d="M7.94787 21.9999V13.0731L7.94019 13.0668L7.94787 21.9999Z" fill="#C5221F"/>
<path d="M7.94014 6.52429L6.37646 5.39407C3.60179 3.91026 3 7.17716 3 7.17716V9.46539L7.94014 13.0669V6.52429Z" fill="#C5221F"/>
<path d="M7.94019 6.52417V13.0668L7.94787 13.0731V6.53048L7.94019 6.52417Z" fill="#C5221F"/>
<path d="M3 9.46655V20.6589C3.07646 21.8901 4.15673 22 4.15673 22H7.94877L7.94013 13.0668L3 9.46655Z" fill="#4285F4"/>
</svg>
