<svg width="24" height="24" viewBox="0 0 24 24" fill="none" xmlns="http://www.w3.org/2000/svg">
<path d="M0 0H24V24H0V0Z" fill="black"/>
<path d="M12.4232 8.088C12.4232 7.98196 12.5092 7.896 12.6152 7.896H18.1832C18.2892 7.896 18.3752 7.98196 18.3752 8.088V15.888C18.3752 15.994 18.2892 16.08 18.1832 16.08H12.6152C12.5092 16.08 12.4232 15.994 12.4232 15.888V8.088Z" fill="#1BA94C"/>
<path d="M5.832 16.083C5.72596 16.083 5.64 15.997 5.64 15.891V8.088C5.64 7.98196 5.72596 7.896 5.832 7.896H7.46016C7.5662 7.896 7.65216 7.98196 7.65216 8.088V10.8103C7.65216 10.9163 7.73812 11.0023 7.84416 11.0023H9.44717C9.55321 11.0023 9.63917 10.9163 9.63917 10.8103V8.088C9.63917 7.98196 9.72513 7.896 9.83117 7.896H11.4593C11.5654 7.896 11.6513 7.98196 11.6513 8.088V15.891C11.6513 15.997 11.5654 16.083 11.4593 16.083H9.83117C9.72513 16.083 9.63917 15.997 9.63917 15.891V12.9423C9.63917 12.8363 9.55321 12.7503 9.44717 12.7503H7.84416C7.73812 12.7503 7.65216 12.8363 7.65216 12.9423V15.891C7.65216 15.997 7.5662 16.083 7.46016 16.083H5.832Z" fill="white"/>
</svg>
