<svg width="20" height="20" viewBox="0 0 20 20" fill="none" xmlns="http://www.w3.org/2000/svg">
<rect width="20" height="20" rx="6" fill="url(#paint0_radial_130_67)"/>
<rect width="20" height="20" rx="6" fill="url(#paint1_radial_130_67)"/>
<rect width="20" height="20" rx="6" fill="url(#paint2_radial_130_67)"/>
<path d="M15 6.07146C15 6.6632 14.5203 7.14289 13.9285 7.14289C13.3368 7.14289 12.8571 6.6632 12.8571 6.07146C12.8571 5.47973 13.3368 5.00003 13.9285 5.00003C14.5203 5.00003 15 5.47973 15 6.07146Z" fill="white"/>
<path fill-rule="evenodd" clip-rule="evenodd" d="M9.99997 13.5715C11.9724 13.5715 13.5714 11.9725 13.5714 10C13.5714 8.02759 11.9724 6.42861 9.99997 6.42861C8.02753 6.42861 6.42855 8.02759 6.42855 10C6.42855 11.9725 8.02753 13.5715 9.99997 13.5715ZM9.99997 12.1429C11.1834 12.1429 12.1428 11.1835 12.1428 10C12.1428 8.81657 11.1834 7.85718 9.99997 7.85718C8.81651 7.85718 7.85712 8.81657 7.85712 10C7.85712 11.1835 8.81651 12.1429 9.99997 12.1429Z" fill="white"/>
<path fill-rule="evenodd" clip-rule="evenodd" d="M2.85712 9.71432C2.85712 7.3141 2.85712 6.11398 3.32423 5.19722C3.73512 4.39081 4.39075 3.73518 5.19716 3.32429C6.11392 2.85718 7.31403 2.85718 9.71426 2.85718H10.2857C12.6859 2.85718 13.886 2.85718 14.8028 3.32429C15.6092 3.73518 16.2648 4.39081 16.6757 5.19722C17.1428 6.11398 17.1428 7.3141 17.1428 9.71432V10.2857C17.1428 12.686 17.1428 13.8861 16.6757 14.8029C16.2648 15.6093 15.6092 16.2649 14.8028 16.6758C13.886 17.1429 12.6859 17.1429 10.2857 17.1429H9.71426C7.31403 17.1429 6.11392 17.1429 5.19716 16.6758C4.39075 16.2649 3.73512 15.6093 3.32423 14.8029C2.85712 13.8861 2.85712 12.686 2.85712 10.2857V9.71432ZM9.71426 4.28575H10.2857C11.5094 4.28575 12.3412 4.28686 12.9842 4.33939C13.6105 4.39057 13.9308 4.48332 14.1542 4.59716C14.6918 4.87108 15.1289 5.30817 15.4029 5.84578C15.5167 6.0692 15.6094 6.3895 15.6606 7.0158C15.7131 7.65879 15.7143 8.49064 15.7143 9.71432V10.2857C15.7143 11.5094 15.7131 12.3413 15.6606 12.9843C15.6094 13.6106 15.5167 13.9309 15.4029 14.1543C15.1289 14.6919 14.6918 15.129 14.1542 15.4029C13.9308 15.5168 13.6105 15.6095 12.9842 15.6607C12.3412 15.7132 11.5094 15.7143 10.2857 15.7143H9.71426C8.49057 15.7143 7.65873 15.7132 7.01574 15.6607C6.38943 15.6095 6.06914 15.5168 5.84572 15.4029C5.30811 15.129 4.87102 14.6919 4.5971 14.1543C4.48326 13.9309 4.3905 13.6106 4.33933 12.9843C4.2868 12.3413 4.28569 11.5094 4.28569 10.2857V9.71432C4.28569 8.49064 4.2868 7.65879 4.33933 7.0158C4.3905 6.3895 4.48326 6.0692 4.5971 5.84578C4.87102 5.30817 5.30811 4.87108 5.84572 4.59716C6.06914 4.48332 6.38943 4.39057 7.01574 4.33939C7.65873 4.28686 8.49057 4.28575 9.71426 4.28575Z" fill="white"/>
<defs>
<radialGradient id="paint0_radial_130_67" cx="0" cy="0" r="1" gradientUnits="userSpaceOnUse" gradientTransform="translate(7.14286 15) rotate(-55.3758) scale(18.2283)">
<stop stop-color="#B13589"/>
<stop offset="0.79309" stop-color="#C62F94"/>
<stop offset="1" stop-color="#8A3AC8"/>
</radialGradient>
<radialGradient id="paint1_radial_130_67" cx="0" cy="0" r="1" gradientUnits="userSpaceOnUse" gradientTransform="translate(6.42857 20.7143) rotate(-65.1363) scale(16.1387)">
<stop stop-color="#E0E8B7"/>
<stop offset="0.444662" stop-color="#FB8A2E"/>
<stop offset="0.71474" stop-color="#E2425C"/>
<stop offset="1" stop-color="#E2425C" stop-opacity="0"/>
</radialGradient>
<radialGradient id="paint2_radial_130_67" cx="0" cy="0" r="1" gradientUnits="userSpaceOnUse" gradientTransform="translate(-1.07143 0.714286) rotate(-8.1301) scale(27.7792 5.94168)">
<stop offset="0.156701" stop-color="#406ADC"/>
<stop offset="0.467799" stop-color="#6A45BE"/>
<stop offset="1" stop-color="#6A45BE" stop-opacity="0"/>
</radialGradient>
</defs>
</svg>
