<svg width="28" height="29" viewBox="0 0 28 29" fill="none" xmlns="http://www.w3.org/2000/svg">
<rect y="0.512634" width="28" height="28" fill="#FFCA28"/>
<path d="M17 23.8003L19.0615 22.4362C19.2231 22.9438 20.2462 24.1493 21.5385 24.1493C22.8308 24.1493 23.4308 23.4434 23.4308 22.9755C23.4308 21.7003 22.1112 21.2507 21.4774 21.0347C21.374 20.9995 21.289 20.9706 21.2308 20.9452C21.2009 20.9322 21.1558 20.915 21.0979 20.8928C20.393 20.6235 17.7923 19.6299 17.7923 16.7498C17.7923 13.5775 20.8538 13.2126 21.5462 13.2126C21.9991 13.2126 24.1769 13.2682 25.2615 15.3064L23.2615 16.7022C22.8231 15.814 22.0946 15.5205 21.6462 15.5205C20.5385 15.5205 20.3077 16.3326 20.3077 16.7022C20.3077 17.7394 21.5112 18.2043 22.5273 18.5969C22.7932 18.6996 23.0462 18.7973 23.2615 18.899C24.3692 19.4225 26 20.279 26 22.9755C26 24.3261 24.8672 26.5126 22.0154 26.5126C18.1846 26.5126 17.1692 24.2127 17 23.8003Z" fill="#3E3E3E"/>
<path d="M7 24.0712L9.14867 22.7078C9.31704 23.2151 9.97126 24.1505 10.9205 24.1505C11.8698 24.1505 12.3557 23.1755 12.3557 22.7078V13.5127H14.9982V22.7078C15.041 23.9761 14.3376 26.5127 11.2332 26.5127C8.379 26.5127 7.19242 24.8163 7 24.0712Z" fill="#3E3E3E"/>
</svg>
