<svg width="989" height="224" viewBox="0 0 989 224" fill="none" xmlns="http://www.w3.org/2000/svg">
<path d="M275.76 170V60.9092H295.522V111.033H296.854L339.414 60.9092H363.544L321.357 109.862L363.917 170H340.16L307.614 123.232L295.522 137.507V170H275.76Z" fill="currentColor"/>
<path d="M395.704 60.9092V170H376.421V60.9092H395.704Z" fill="currentColor"/>
<path d="M451.222 171.598C443.232 171.598 436.307 169.84 430.448 166.325C424.588 162.809 420.043 157.891 416.811 151.57C413.615 145.249 412.017 137.862 412.017 129.411C412.017 120.959 413.615 113.555 416.811 107.198C420.043 100.842 424.588 95.9056 430.448 92.39C436.307 88.8744 443.232 87.1166 451.222 87.1166C459.212 87.1166 466.136 88.8744 471.996 92.39C477.855 95.9056 482.383 100.842 485.579 107.198C488.81 113.555 490.426 120.959 490.426 129.411C490.426 137.862 488.81 145.249 485.579 151.57C482.383 157.891 477.855 162.809 471.996 166.325C466.136 169.84 459.212 171.598 451.222 171.598ZM451.328 156.151C455.661 156.151 459.283 154.961 462.195 152.582C465.107 150.167 467.273 146.935 468.693 142.887C470.149 138.839 470.877 134.329 470.877 129.357C470.877 124.35 470.149 119.823 468.693 115.774C467.273 111.69 465.107 108.441 462.195 106.026C459.283 103.612 455.661 102.404 451.328 102.404C446.889 102.404 443.196 103.612 440.249 106.026C437.337 108.441 435.153 111.69 433.697 115.774C432.276 119.823 431.566 124.35 431.566 129.357C431.566 134.329 432.276 138.839 433.697 142.887C435.153 146.935 437.337 150.167 440.249 152.582C443.196 154.961 446.889 156.151 451.328 156.151Z" fill="currentColor"/>
<path d="M526.075 122.06V170H506.793V88.1819H525.223V102.085H526.182C528.064 97.5036 531.065 93.8637 535.184 91.1649C539.339 88.466 544.47 87.1166 550.578 87.1166C556.224 87.1166 561.143 88.324 565.333 90.7387C569.559 93.1535 572.826 96.6514 575.134 101.232C577.478 105.813 578.632 111.371 578.596 117.905V170H559.314V120.888C559.314 115.419 557.893 111.14 555.052 108.051C552.247 104.961 548.359 103.416 543.387 103.416C540.013 103.416 537.013 104.162 534.385 105.653C531.792 107.109 529.751 109.222 528.259 111.992C526.803 114.762 526.075 118.118 526.075 122.06Z" fill="currentColor"/>
<path d="M598.199 170V88.1819H617.481V170H598.199ZM607.893 76.5697C604.839 76.5697 602.212 75.5576 600.01 73.5335C597.808 71.4738 596.707 69.0058 596.707 66.1293C596.707 63.2174 597.808 60.7494 600.01 58.7252C602.212 56.6656 604.839 55.6357 607.893 55.6357C610.983 55.6357 613.611 56.6656 615.777 58.7252C617.979 60.7494 619.079 63.2174 619.079 66.1293C619.079 69.0058 617.979 71.4738 615.777 73.5335C613.611 75.5576 610.983 76.5697 607.893 76.5697Z" fill="currentColor"/>
<path d="M656.593 122.06V170H637.31V88.1819H655.74V102.085H656.699C658.581 97.5036 661.582 93.8637 665.701 91.1649C669.856 88.466 674.988 87.1166 681.096 87.1166C686.742 87.1166 691.66 88.324 695.851 90.7387C700.076 93.1535 703.343 96.6514 705.652 101.232C707.995 105.813 709.15 111.371 709.114 117.905V170H689.831V120.888C689.831 115.419 688.411 111.14 685.57 108.051C682.765 104.961 678.876 103.416 673.905 103.416C670.531 103.416 667.53 104.162 664.902 105.653C662.31 107.109 660.268 109.222 658.777 111.992C657.321 114.762 656.593 118.118 656.593 122.06Z" fill="currentColor"/>
<path d="M764.299 202.386C757.374 202.386 751.426 201.445 746.454 199.563C741.483 197.717 737.488 195.231 734.469 192.106C731.451 188.981 729.356 185.519 728.184 181.719L745.549 177.511C746.33 179.109 747.466 180.689 748.958 182.252C750.449 183.85 752.456 185.163 754.977 186.193C757.534 187.259 760.748 187.791 764.618 187.791C770.087 187.791 774.615 186.46 778.201 183.796C781.788 181.168 783.581 176.836 783.581 170.799V155.298H782.623C781.628 157.287 780.172 159.329 778.255 161.424C776.373 163.519 773.869 165.277 770.744 166.698C767.655 168.118 763.766 168.828 759.079 168.828C752.793 168.828 747.093 167.354 741.98 164.407C736.902 161.424 732.853 156.985 729.835 151.09C726.852 145.16 725.361 137.738 725.361 128.825C725.361 119.84 726.852 112.259 729.835 106.08C732.853 99.8651 736.919 95.1599 742.033 91.9639C747.147 88.7323 752.846 87.1166 759.132 87.1166C763.926 87.1166 767.868 87.9333 770.957 89.5668C774.082 91.1649 776.568 93.1002 778.414 95.373C780.261 97.6102 781.664 99.7231 782.623 101.712H783.688V88.1819H802.704V171.332C802.704 178.328 801.035 184.116 797.697 188.697C794.359 193.278 789.796 196.705 784.008 198.977C778.219 201.25 771.65 202.386 764.299 202.386ZM764.459 153.7C768.542 153.7 772.022 152.706 774.899 150.717C777.775 148.729 779.959 145.87 781.451 142.141C782.942 138.413 783.688 133.938 783.688 128.718C783.688 123.569 782.942 119.059 781.451 115.188C779.995 111.318 777.829 108.317 774.952 106.186C772.111 104.02 768.613 102.937 764.459 102.937C760.162 102.937 756.575 104.055 753.699 106.293C750.822 108.53 748.656 111.602 747.2 115.508C745.744 119.379 745.016 123.782 745.016 128.718C745.016 133.725 745.744 138.111 747.2 141.875C748.691 145.604 750.875 148.516 753.752 150.611C756.664 152.671 760.233 153.7 764.459 153.7Z" fill="currentColor"/>
<path d="M852.829 171.438C846.401 171.438 840.648 169.787 835.57 166.484C830.492 163.182 826.479 158.388 823.532 152.102C820.584 145.817 819.111 138.182 819.111 129.198C819.111 120.107 820.602 112.436 823.585 106.186C826.603 99.9007 830.669 95.1599 835.783 91.9639C840.897 88.7323 846.596 87.1166 852.882 87.1166C857.676 87.1166 861.618 87.9333 864.707 89.5668C867.797 91.1649 870.247 93.1002 872.058 95.373C873.869 97.6102 875.272 99.7231 876.266 101.712H877.065V88.1819H896.401V170H877.438V157.109H876.266C875.272 159.098 873.834 161.211 871.951 163.448C870.069 165.65 867.584 167.532 864.494 169.095C861.405 170.657 857.516 171.438 852.829 171.438ZM858.208 155.618C862.292 155.618 865.772 154.517 868.649 152.315C871.525 150.078 873.709 146.971 875.201 142.994C876.692 139.016 877.438 134.382 877.438 129.091C877.438 123.8 876.692 119.201 875.201 115.295C873.745 111.389 871.579 108.352 868.702 106.186C865.861 104.02 862.363 102.937 858.208 102.937C853.912 102.937 850.325 104.055 847.449 106.293C844.572 108.53 842.406 111.619 840.95 115.561C839.494 119.503 838.766 124.013 838.766 129.091C838.766 134.205 839.494 138.768 840.95 142.781C842.441 146.758 844.625 149.901 847.502 152.209C850.414 154.482 853.983 155.618 858.208 155.618Z" fill="currentColor"/>
<path d="M936.231 122.06V170H916.949V88.1819H935.379V102.085H936.338C938.22 97.5036 941.221 93.8637 945.34 91.1649C949.495 88.466 954.626 87.1166 960.734 87.1166C966.381 87.1166 971.299 88.324 975.489 90.7387C979.715 93.1535 982.982 96.6514 985.29 101.232C987.634 105.813 988.788 111.371 988.753 117.905V170H969.47V120.888C969.47 115.419 968.05 111.14 965.209 108.051C962.403 104.961 958.515 103.416 953.543 103.416C950.17 103.416 947.169 104.162 944.541 105.653C941.949 107.109 939.907 109.222 938.415 111.992C936.959 114.762 936.231 118.118 936.231 122.06Z" fill="currentColor"/>
<path d="M0 33C0 14.7746 14.7746 0 33 0H137C155.225 0 170 14.7746 170 33V137C170 155.225 155.225 170 137 170H33C14.7746 170 0 155.225 0 137V33Z" fill="#22D3EE"/>
<path d="M53 87C53 68.7746 67.7746 54 86 54H190C208.225 54 223 68.7746 223 87V191C223 209.225 208.225 224 190 224H86C67.7746 224 53 209.225 53 191V87Z" fill="#06B6D4"/>
</svg>
