<svg width="661" height="207" viewBox="0 0 661 207" fill="none" xmlns="http://www.w3.org/2000/svg">
<path d="M63.0612 176C63.0612 193.121 48.9445 207 31.5306 207C14.1167 207 0 193.121 0 176C0 158.879 14.1167 145 31.5306 145C48.9445 145 63.0612 158.879 63.0612 176Z" fill="#22D3EE" />
<path d="M134.531 176C134.531 193.121 120.414 207 103 207C85.5861 207 71.4694 193.121 71.4694 176C71.4694 158.879 85.5861 145 103 145C120.414 145 134.531 158.879 134.531 176Z" fill="#06B6D4" />
<path d="M206 176C206 193.121 191.883 207 174.469 207C157.056 207 142.939 193.121 142.939 176C142.939 158.879 157.056 145 174.469 145C191.883 145 206 158.879 206 176Z" fill="#0891B2" />
<path d="M25.4062 82.777L25.3565 61.0511H28.2401L55.6832 30.3764H76.7131L42.956 67.9616H39.2273L25.4062 82.777ZM9 106.74V4.92188H26.9972V106.74H9ZM56.9261 106.74L32.0682 71.9886L44.1989 59.3111L78.4531 106.74H56.9261Z" fill="currentColor" />
<path d="M106.704 4.92188V106.74H88.707V4.92188H106.704Z" fill="currentColor" />
<path d="M158.521 108.232C151.063 108.232 144.6 106.591 139.131 103.31C133.663 100.028 129.42 95.438 126.404 89.5384C123.421 83.6387 121.93 76.7448 121.93 68.8565C121.93 60.9683 123.421 54.0578 126.404 48.125C129.42 42.1922 133.663 37.5852 139.131 34.304C144.6 31.0227 151.063 29.3821 158.521 29.3821C165.978 29.3821 172.441 31.0227 177.91 34.304C183.379 37.5852 187.604 42.1922 190.587 48.125C193.603 54.0578 195.112 60.9683 195.112 68.8565C195.112 76.7448 193.603 83.6387 190.587 89.5384C187.604 95.438 183.379 100.028 177.91 103.31C172.441 106.591 165.978 108.232 158.521 108.232ZM158.62 93.8139C162.664 93.8139 166.044 92.7036 168.762 90.483C171.48 88.2292 173.502 85.2131 174.827 81.4347C176.186 77.6562 176.866 73.447 176.866 68.8068C176.866 64.1335 176.186 59.9077 174.827 56.1293C173.502 52.3177 171.48 49.285 168.762 47.0312C166.044 44.7775 162.664 43.6506 158.62 43.6506C154.477 43.6506 151.03 44.7775 148.279 47.0312C145.561 49.285 143.523 52.3177 142.164 56.1293C140.838 59.9077 140.175 64.1335 140.175 68.8068C140.175 73.447 140.838 77.6562 142.164 81.4347C143.523 85.2131 145.561 88.2292 148.279 90.483C151.03 92.7036 154.477 93.8139 158.62 93.8139Z" fill="currentColor" />
<path d="M228.384 61.9957V106.74H210.387V30.3764H227.588V43.3523H228.483C230.24 39.0767 233.041 35.6795 236.885 33.1605C240.763 30.6416 245.552 29.3821 251.253 29.3821C256.523 29.3821 261.114 30.509 265.025 32.7628C268.969 35.0166 272.018 38.2812 274.172 42.5568C276.36 46.8324 277.437 52.0194 277.404 58.1179V106.74H259.407V60.902C259.407 55.7978 258.081 51.804 255.429 48.9205C252.811 46.0369 249.182 44.5952 244.542 44.5952C241.393 44.5952 238.592 45.2912 236.14 46.6832C233.72 48.0421 231.814 50.0142 230.422 52.5994C229.063 55.1847 228.384 58.3168 228.384 61.9957Z" fill="currentColor" />
<path d="M295.699 106.74V30.3764H313.696V106.74H295.699ZM304.748 19.5384C301.897 19.5384 299.444 18.5938 297.39 16.7045C295.335 14.7822 294.307 12.4787 294.307 9.79403C294.307 7.07623 295.335 4.77273 297.39 2.88352C299.444 0.961173 301.897 0 304.748 0C307.631 0 310.084 0.961173 312.105 2.88352C314.16 4.77273 315.188 7.07623 315.188 9.79403C315.188 12.4787 314.16 14.7822 312.105 16.7045C310.084 18.5938 307.631 19.5384 304.748 19.5384Z" fill="currentColor" />
<path d="M350.2 61.9957V106.74H332.203V30.3764H349.405V43.3523H350.3C352.056 39.0767 354.857 35.6795 358.702 33.1605C362.58 30.6416 367.369 29.3821 373.07 29.3821C378.34 29.3821 382.93 30.509 386.841 32.7628C390.785 35.0166 393.834 38.2812 395.989 42.5568C398.176 46.8324 399.253 52.0194 399.22 58.1179V106.74H381.223V60.902C381.223 55.7978 379.897 51.804 377.246 48.9205C374.627 46.0369 370.998 44.5952 366.358 44.5952C363.209 44.5952 360.409 45.2912 357.956 46.6832C355.536 48.0421 353.631 50.0142 352.239 52.5994C350.88 55.1847 350.2 58.3168 350.2 61.9957Z" fill="currentColor" />
<path d="M450.726 136.967C444.263 136.967 438.711 136.089 434.071 134.332C429.431 132.609 425.702 130.289 422.885 127.372C420.068 124.455 418.112 121.224 417.018 117.678L433.226 113.75C433.955 115.241 435.016 116.716 436.408 118.175C437.8 119.666 439.672 120.893 442.026 121.854C444.412 122.848 447.411 123.345 451.024 123.345C456.128 123.345 460.354 122.102 463.702 119.616C467.049 117.164 468.723 113.12 468.723 107.486V93.0185H467.828C466.9 94.8745 465.541 96.7803 463.751 98.7358C461.995 100.691 459.658 102.332 456.741 103.658C453.858 104.983 450.229 105.646 445.854 105.646C439.987 105.646 434.668 104.271 429.895 101.52C425.155 98.7358 421.377 94.5928 418.56 89.0909C415.776 83.5559 414.384 76.6288 414.384 68.3097C414.384 59.9242 415.776 52.848 418.56 47.081C421.377 41.2808 425.172 36.8892 429.945 33.9062C434.717 30.8902 440.037 29.3821 445.903 29.3821C450.378 29.3821 454.057 30.1444 456.94 31.669C459.857 33.1605 462.177 34.9669 463.901 37.0881C465.624 39.1761 466.933 41.1482 467.828 43.0043H468.822V30.3764H486.571V107.983C486.571 114.512 485.013 119.915 481.898 124.19C478.782 128.466 474.523 131.664 469.121 133.786C463.718 135.907 457.587 136.967 450.726 136.967ZM450.875 91.527C454.687 91.527 457.935 90.599 460.619 88.7429C463.304 86.8868 465.342 84.2188 466.734 80.7386C468.126 77.2585 468.822 73.0824 468.822 68.2102C468.822 63.4044 468.126 59.1951 466.734 55.5824C465.375 51.9697 463.354 49.169 460.669 47.1804C458.018 45.1586 454.753 44.1477 450.875 44.1477C446.865 44.1477 443.517 45.1918 440.832 47.2798C438.148 49.3679 436.126 52.2349 434.767 55.8807C433.408 59.4934 432.729 63.6032 432.729 68.2102C432.729 72.8835 433.408 76.9768 434.767 80.4901C436.159 83.9702 438.197 86.688 440.882 88.6435C443.6 90.5658 446.931 91.527 450.875 91.527Z" fill="currentColor" />
<path d="M533.354 108.082C527.355 108.082 521.985 106.541 517.246 103.459C512.506 100.376 508.761 95.902 506.01 90.0355C503.259 84.169 501.884 77.0431 501.884 68.6577C501.884 60.1728 503.276 53.0137 506.06 47.1804C508.877 41.3139 512.672 36.8892 517.445 33.9062C522.217 30.8902 527.537 29.3821 533.403 29.3821C537.878 29.3821 541.557 30.1444 544.44 31.669C547.324 33.1605 549.611 34.9669 551.301 37.0881C552.992 39.1761 554.301 41.1482 555.229 43.0043H555.974V30.3764H574.021V106.74H556.322V94.7088H555.229C554.301 96.5649 552.958 98.5369 551.202 100.625C549.445 102.68 547.125 104.437 544.241 105.895C541.358 107.353 537.729 108.082 533.354 108.082ZM538.375 93.3168C542.187 93.3168 545.435 92.2893 548.119 90.2344C550.804 88.1463 552.842 85.2462 554.234 81.5341C555.626 77.822 556.322 73.4967 556.322 68.5582C556.322 63.6198 555.626 59.3277 554.234 55.6818C552.875 52.036 550.854 49.2022 548.169 47.1804C545.518 45.1586 542.253 44.1477 538.375 44.1477C534.365 44.1477 531.017 45.1918 528.332 47.2798C525.648 49.3679 523.626 52.2514 522.267 55.9304C520.908 59.6094 520.229 63.8187 520.229 68.5582C520.229 73.331 520.908 77.59 522.267 81.3352C523.659 85.0473 525.697 87.9806 528.382 90.1349C531.1 92.2562 534.431 93.3168 538.375 93.3168Z" fill="currentColor" />
<path d="M611.196 61.9957V106.74H593.199V30.3764H610.401V43.3523H611.296C613.052 39.0767 615.853 35.6795 619.698 33.1605C623.576 30.6416 628.365 29.3821 634.066 29.3821C639.336 29.3821 643.926 30.509 647.837 32.7628C651.781 35.0166 654.83 38.2812 656.985 42.5568C659.172 46.8324 660.249 52.0194 660.216 58.1179V106.74H642.219V60.902C642.219 55.7978 640.893 51.804 638.242 48.9205C635.623 46.0369 631.994 44.5952 627.354 44.5952C624.205 44.5952 621.405 45.2912 618.952 46.6832C616.533 48.0421 614.627 50.0142 613.235 52.5994C611.876 55.1847 611.196 58.3168 611.196 61.9957Z" fill="currentColor" />
</svg>