<svg width="671" height="328" viewBox="0 0 671 328" fill="none" xmlns="http://www.w3.org/2000/svg">
<path d="M264.653 56C264.653 86.9279 239.435 112 208.327 112C177.218 112 152 86.9279 152 56C152 25.0721 177.218 0 208.327 0C239.435 0 264.653 25.0721 264.653 56Z" fill="#22D3EE"/>
<path d="M392.327 56C392.327 86.9279 367.108 112 336 112C304.892 112 279.673 86.9279 279.673 56C279.673 25.0721 304.892 0 336 0C367.108 0 392.327 25.0721 392.327 56Z" fill="#06B6D4"/>
<path d="M520 56C520 86.9279 494.782 112 463.673 112C432.565 112 407.347 86.9279 407.347 56C407.347 25.0721 432.565 0 463.673 0C494.782 0 520 25.0721 520 56Z" fill="#0891B2"/>
<path d="M63.0612 297C63.0612 314.121 48.9445 328 31.5306 328C14.1167 328 0 314.121 0 297C0 279.879 14.1167 266 31.5306 266C48.9445 266 63.0612 279.879 63.0612 297Z" fill="#22D3EE"/>
<path d="M134.531 297C134.531 314.121 120.414 328 103 328C85.5861 328 71.4694 314.121 71.4694 297C71.4694 279.879 85.5861 266 103 266C120.414 266 134.531 279.879 134.531 297Z" fill="#06B6D4"/>
<path d="M206 297C206 314.121 191.883 328 174.469 328C157.056 328 142.939 314.121 142.939 297C142.939 279.879 157.056 266 174.469 266C191.883 266 206 279.879 206 297Z" fill="#0891B2"/>
<path d="M25.4062 203.777L25.3565 182.051H28.2401L55.6832 151.376H76.7131L42.956 188.962H39.2273L25.4062 203.777ZM9 227.74V125.922H26.9972V227.74H9ZM56.9261 227.74L32.0682 192.989L44.1989 180.311L78.4531 227.74H56.9261Z" fill="currentColor"/>
<path d="M106.704 125.922V227.74H88.707V125.922H106.704Z" fill="currentColor"/>
<path d="M158.521 229.232C151.063 229.232 144.6 227.591 139.131 224.31C133.663 221.028 129.42 216.438 126.404 210.538C123.421 204.639 121.93 197.745 121.93 189.857C121.93 181.968 123.421 175.058 126.404 169.125C129.42 163.192 133.663 158.585 139.131 155.304C144.6 152.023 151.063 150.382 158.521 150.382C165.978 150.382 172.441 152.023 177.91 155.304C183.379 158.585 187.604 163.192 190.587 169.125C193.603 175.058 195.112 181.968 195.112 189.857C195.112 197.745 193.603 204.639 190.587 210.538C187.604 216.438 183.379 221.028 177.91 224.31C172.441 227.591 165.978 229.232 158.521 229.232ZM158.62 214.814C162.664 214.814 166.044 213.704 168.762 211.483C171.48 209.229 173.502 206.213 174.827 202.435C176.186 198.656 176.866 194.447 176.866 189.807C176.866 185.134 176.186 180.908 174.827 177.129C173.502 173.318 171.48 170.285 168.762 168.031C166.044 165.777 162.664 164.651 158.62 164.651C154.477 164.651 151.03 165.777 148.279 168.031C145.561 170.285 143.523 173.318 142.164 177.129C140.838 180.908 140.175 185.134 140.175 189.807C140.175 194.447 140.838 198.656 142.164 202.435C143.523 206.213 145.561 209.229 148.279 211.483C151.03 213.704 154.477 214.814 158.62 214.814Z" fill="currentColor"/>
<path d="M228.384 182.996V227.74H210.387V151.376H227.588V164.352H228.483C230.24 160.077 233.041 156.679 236.885 154.161C240.763 151.642 245.552 150.382 251.253 150.382C256.523 150.382 261.114 151.509 265.025 153.763C268.969 156.017 272.018 159.281 274.172 163.557C276.36 167.832 277.437 173.019 277.404 179.118V227.74H259.407V181.902C259.407 176.798 258.081 172.804 255.429 169.92C252.811 167.037 249.182 165.595 244.542 165.595C241.393 165.595 238.592 166.291 236.14 167.683C233.72 169.042 231.814 171.014 230.422 173.599C229.063 176.185 228.384 179.317 228.384 182.996Z" fill="currentColor"/>
<path d="M295.699 227.74V151.376H313.696V227.74H295.699ZM304.748 140.538C301.897 140.538 299.444 139.594 297.39 137.705C295.335 135.782 294.307 133.479 294.307 130.794C294.307 128.076 295.335 125.773 297.39 123.884C299.444 121.961 301.897 121 304.748 121C307.631 121 310.084 121.961 312.105 123.884C314.16 125.773 315.188 128.076 315.188 130.794C315.188 133.479 314.16 135.782 312.105 137.705C310.084 139.594 307.631 140.538 304.748 140.538Z" fill="currentColor"/>
<path d="M350.2 182.996V227.74H332.203V151.376H349.405V164.352H350.3C352.056 160.077 354.857 156.679 358.702 154.161C362.58 151.642 367.369 150.382 373.07 150.382C378.34 150.382 382.93 151.509 386.841 153.763C390.785 156.017 393.834 159.281 395.989 163.557C398.176 167.832 399.253 173.019 399.22 179.118V227.74H381.223V181.902C381.223 176.798 379.897 172.804 377.246 169.92C374.627 167.037 370.998 165.595 366.358 165.595C363.209 165.595 360.409 166.291 357.956 167.683C355.536 169.042 353.631 171.014 352.239 173.599C350.88 176.185 350.2 179.317 350.2 182.996Z" fill="currentColor"/>
<path d="M450.726 257.967C444.263 257.967 438.711 257.089 434.071 255.332C429.431 253.609 425.702 251.289 422.885 248.372C420.068 245.455 418.112 242.224 417.018 238.678L433.226 234.75C433.955 236.241 435.016 237.716 436.408 239.175C437.8 240.666 439.672 241.893 442.026 242.854C444.412 243.848 447.411 244.345 451.024 244.345C456.128 244.345 460.354 243.102 463.702 240.616C467.049 238.164 468.723 234.12 468.723 228.486V214.018H467.828C466.9 215.875 465.541 217.78 463.751 219.736C461.995 221.691 459.658 223.332 456.741 224.658C453.858 225.983 450.229 226.646 445.854 226.646C439.987 226.646 434.668 225.271 429.895 222.52C425.155 219.736 421.377 215.593 418.56 210.091C415.776 204.556 414.384 197.629 414.384 189.31C414.384 180.924 415.776 173.848 418.56 168.081C421.377 162.281 425.172 157.889 429.945 154.906C434.717 151.89 440.037 150.382 445.903 150.382C450.378 150.382 454.057 151.144 456.94 152.669C459.857 154.161 462.177 155.967 463.901 158.088C465.624 160.176 466.933 162.148 467.828 164.004H468.822V151.376H486.571V228.983C486.571 235.512 485.013 240.915 481.898 245.19C478.782 249.466 474.523 252.664 469.121 254.786C463.718 256.907 457.587 257.967 450.726 257.967ZM450.875 212.527C454.687 212.527 457.935 211.599 460.619 209.743C463.304 207.887 465.342 205.219 466.734 201.739C468.126 198.259 468.822 194.082 468.822 189.21C468.822 184.404 468.126 180.195 466.734 176.582C465.375 172.97 463.354 170.169 460.669 168.18C458.018 166.159 454.753 165.148 450.875 165.148C446.865 165.148 443.517 166.192 440.832 168.28C438.148 170.368 436.126 173.235 434.767 176.881C433.408 180.493 432.729 184.603 432.729 189.21C432.729 193.884 433.408 197.977 434.767 201.49C436.159 204.97 438.197 207.688 440.882 209.643C443.6 211.566 446.931 212.527 450.875 212.527Z" fill="currentColor"/>
<path d="M533.354 229.082C527.355 229.082 521.985 227.541 517.246 224.459C512.506 221.376 508.761 216.902 506.01 211.036C503.259 205.169 501.884 198.043 501.884 189.658C501.884 181.173 503.276 174.014 506.06 168.18C508.877 162.314 512.672 157.889 517.445 154.906C522.217 151.89 527.537 150.382 533.403 150.382C537.878 150.382 541.557 151.144 544.44 152.669C547.324 154.161 549.611 155.967 551.301 158.088C552.992 160.176 554.301 162.148 555.229 164.004H555.974V151.376H574.021V227.74H556.322V215.709H555.229C554.301 217.565 552.958 219.537 551.202 221.625C549.445 223.68 547.125 225.437 544.241 226.895C541.358 228.353 537.729 229.082 533.354 229.082ZM538.375 214.317C542.187 214.317 545.435 213.289 548.119 211.234C550.804 209.146 552.842 206.246 554.234 202.534C555.626 198.822 556.322 194.497 556.322 189.558C556.322 184.62 555.626 180.328 554.234 176.682C552.875 173.036 550.854 170.202 548.169 168.18C545.518 166.159 542.253 165.148 538.375 165.148C534.365 165.148 531.017 166.192 528.332 168.28C525.648 170.368 523.626 173.251 522.267 176.93C520.908 180.609 520.229 184.819 520.229 189.558C520.229 194.331 520.908 198.59 522.267 202.335C523.659 206.047 525.697 208.981 528.382 211.135C531.1 213.256 534.431 214.317 538.375 214.317Z" fill="currentColor"/>
<path d="M611.196 182.996V227.74H593.199V151.376H610.401V164.352H611.296C613.052 160.077 615.853 156.679 619.698 154.161C623.576 151.642 628.365 150.382 634.066 150.382C639.336 150.382 643.926 151.509 647.837 153.763C651.781 156.017 654.83 159.281 656.985 163.557C659.172 167.832 660.249 173.019 660.216 179.118V227.74H642.219V181.902C642.219 176.798 640.893 172.804 638.242 169.92C635.623 167.037 631.994 165.595 627.354 165.595C624.205 165.595 621.405 166.291 618.952 167.683C616.533 169.042 614.627 171.014 613.235 173.599C611.876 176.185 611.196 179.317 611.196 182.996Z" fill="currentColor"/>
</svg>
