<svg width="519" height="534" viewBox="0 0 519 534" fill="none" xmlns="http://www.w3.org/2000/svg">
<path fill-rule="evenodd" clip-rule="evenodd" d="M517.783 120.654C517.975 121.365 518.073 122.098 518.075 122.835V237.313C518.075 238.783 517.687 240.226 516.951 241.497C516.214 242.769 515.155 243.823 513.881 244.554L417.797 299.874V409.522C417.797 412.506 416.211 415.26 413.623 416.762L213.056 532.222C212.597 532.483 212.096 532.65 211.595 532.827C211.408 532.89 211.23 533.004 211.032 533.057C209.63 533.426 208.156 533.426 206.754 533.057C206.525 532.994 206.316 532.869 206.097 532.785C205.638 532.618 205.158 532.472 204.72 532.222L4.19435 416.762C2.92047 416.031 1.86201 414.976 1.12564 413.705C0.389265 412.434 0.00100935 410.991 0 409.522L0 66.0857C0 65.3345 0.104337 64.6041 0.292144 63.8947C0.354746 63.6547 0.500818 63.4356 0.584287 63.1956C0.740793 62.7574 0.886865 62.3087 1.11641 61.9018C1.27291 61.6305 1.50245 61.4114 1.69026 61.161C1.93023 60.8271 2.14934 60.4828 2.43105 60.1907C2.67103 59.9507 2.98404 59.7733 3.25532 59.5647C3.55789 59.3143 3.82917 59.043 4.17348 58.8447H4.18391L104.452 1.11506C105.721 0.3845 107.161 0 108.625 0C110.09 0 111.529 0.3845 112.799 1.11506L213.067 58.8447H213.088C213.421 59.0534 213.703 59.3143 214.006 59.5542C214.277 59.7629 214.58 59.9507 214.82 60.1803C215.112 60.4828 215.32 60.8271 215.571 61.161C215.748 61.4114 215.988 61.6305 216.134 61.9018C216.374 62.3192 216.51 62.7574 216.677 63.1956C216.76 63.4356 216.906 63.6547 216.969 63.9051C217.161 64.6161 217.259 65.3492 217.261 66.0857V280.592L300.814 232.482V122.824C300.814 122.094 300.918 121.353 301.106 120.654C301.179 120.404 301.315 120.184 301.398 119.945C301.565 119.506 301.711 119.058 301.941 118.651C302.097 118.379 302.327 118.16 302.504 117.91C302.755 117.576 302.963 117.232 303.256 116.94C303.496 116.7 303.798 116.522 304.069 116.314C304.382 116.063 304.654 115.792 304.988 115.594H304.998L405.276 57.864C406.546 57.1324 407.985 56.7473 409.45 56.7473C410.915 56.7473 412.354 57.1324 413.623 57.864L513.891 115.594C514.246 115.802 514.517 116.063 514.83 116.303C515.091 116.512 515.394 116.7 515.634 116.929C515.926 117.232 516.134 117.576 516.385 117.91C516.573 118.16 516.802 118.379 516.948 118.651C517.188 119.058 517.324 119.506 517.491 119.945C517.585 120.184 517.72 120.404 517.783 120.654V120.654ZM501.36 232.482V137.285L466.272 157.485L417.797 185.395V280.592L501.371 232.482H501.36ZM401.092 404.691V309.431L353.41 336.663L217.251 414.373V510.53L401.092 404.691ZM16.7148 80.5364V404.691L200.536 510.52V414.384L104.504 360.034L104.473 360.014L104.431 359.993C104.107 359.805 103.836 359.534 103.534 359.304C103.273 359.095 102.97 358.928 102.741 358.699L102.72 358.668C102.449 358.407 102.261 358.083 102.031 357.791C101.823 357.509 101.572 357.27 101.405 356.977L101.395 356.946C101.207 356.633 101.092 356.257 100.957 355.903C100.821 355.59 100.643 355.298 100.56 354.964V354.953C100.456 354.557 100.435 354.139 100.393 353.732C100.351 353.419 100.268 353.106 100.268 352.793V128.646L51.8033 100.726L16.7148 80.5468V80.5364ZM108.636 17.9968L25.0931 66.0857L108.615 114.175L192.147 66.0753L108.615 17.9968H108.636ZM152.082 318.112L200.546 290.212V80.5364L165.458 100.736L116.983 128.646V338.322L152.082 318.112ZM409.45 74.7457L325.918 122.835L409.45 170.924L492.972 122.824L409.45 74.7457ZM401.092 185.395L352.617 157.485L317.529 137.285V232.482L365.993 260.382L401.092 280.592V185.395ZM208.883 399.922L331.406 329.975L392.652 295.022L309.182 246.964L213.077 302.294L125.486 352.72L208.883 399.922Z" fill="#FF2D20"/>
</svg>
