<svg width="20" height="20" viewBox="0 0 20 20" fill="none" xmlns="http://www.w3.org/2000/svg">
<rect width="20" height="20" rx="10" fill="#1275B1"/>
<path d="M7.58468 5.49432C7.58468 6.16186 7.00608 6.703 6.29234 6.703C5.5786 6.703 5 6.16186 5 5.49432C5 4.82679 5.5786 4.28564 6.29234 4.28564C7.00608 4.28564 7.58468 4.82679 7.58468 5.49432Z" fill="white"/>
<path d="M5.17673 7.59143H7.38586V14.2856H5.17673V7.59143Z" fill="white"/>
<path d="M10.9426 7.59143H8.73343V14.2856H10.9426C10.9426 14.2856 10.9426 12.1782 10.9426 10.8605C10.9426 10.0697 11.2126 9.27531 12.2901 9.27531C13.5079 9.27531 13.5005 10.3103 13.4949 11.1121C13.4874 12.1602 13.5052 13.2298 13.5052 14.2856H15.7143V10.7526C15.6956 8.49663 15.1077 7.45713 13.1738 7.45713C12.0253 7.45713 11.3134 7.97854 10.9426 8.45028V7.59143Z" fill="white"/>
</svg>
