<svg width="531" height="530" viewBox="0 0 531 530" fill="none" xmlns="http://www.w3.org/2000/svg">
<path d="M452.082 451.576H373.611V328.688C373.611 299.384 373.088 261.661 332.798 261.661C291.928 261.661 285.675 293.589 285.675 326.554V451.568H207.204V198.86H282.536V233.395H283.591C291.129 220.505 302.023 209.901 315.112 202.712C328.201 195.524 342.994 192.02 357.917 192.574C437.451 192.574 452.115 244.888 452.115 312.945L452.082 451.576ZM118.663 164.316C109.656 164.318 100.852 161.649 93.3622 156.646C85.8727 151.644 80.0347 144.533 76.5866 136.213C73.1385 127.892 72.235 118.736 73.9905 109.903C75.746 101.069 80.0816 92.954 86.449 86.5843C92.8164 80.2146 100.93 75.8761 109.763 74.1175C118.596 72.3588 127.752 73.259 136.074 76.7041C144.395 80.1492 151.508 85.9846 156.513 93.4723C161.518 100.96 164.191 109.764 164.192 118.77C164.193 124.75 163.017 130.672 160.729 136.197C158.442 141.723 155.088 146.743 150.86 150.973C146.633 155.202 141.613 158.557 136.089 160.847C130.564 163.136 124.643 164.315 118.663 164.316ZM157.898 451.576H79.3457V198.86H157.898V451.576ZM491.203 0.369305H39.9142C29.6712 0.253713 19.8013 4.20943 12.4734 11.3672C5.14551 18.525 0.959086 28.2992 0.834076 38.5421V491.703C0.954807 501.951 5.13855 511.732 12.4662 518.897C19.7939 526.062 29.6661 530.025 39.9142 529.916H491.203C501.471 530.045 511.371 526.093 518.728 518.928C526.084 511.763 530.296 501.971 530.438 491.703V38.5094C530.292 28.2462 526.077 18.4609 518.721 11.3033C511.364 4.14567 501.466 0.20125 491.203 0.336609" fill="currentColor"/>
</svg>
