<svg width="65" height="40" viewBox="0 0 65 40" fill="none" xmlns="http://www.w3.org/2000/svg">
<path d="M15.3372 10.1784H27.5968V11.1481H16.461V18.4466H26.9328V19.4163H16.461V27.4293H27.7245V28.3991H15.3372V10.1784ZM28.6951 10.1784H29.9977L35.7699 18.1914L41.6698 10.1784L49.6947 0L36.5106 19.0335L43.3044 28.3991H41.9508L35.7699 19.8757L29.5635 28.3991H28.2353L35.0803 19.0335L28.6951 10.1784ZM43.7897 11.1481V10.1784H57.7605V11.1481H51.3242V28.3991H50.2004V11.1481H43.7897Z" fill="currentColor"/>
<path d="M0 10.1783H1.40475L20.7754 39.0253L12.7704 28.399L1.17488 11.5563L1.1238 28.399H0V10.1783Z" fill="currentColor"/>
<path d="M57.6473 27.1367C57.8797 27.1367 58.0491 26.9597 58.0491 26.7309C58.0491 26.5021 57.8797 26.325 57.6473 26.325C57.4177 26.325 57.2455 26.5021 57.2455 26.7309C57.2455 26.9597 57.4177 27.1367 57.6473 27.1367ZM58.7516 26.069C58.7516 26.7445 59.2409 27.1857 59.9543 27.1857C60.7141 27.1857 61.1733 26.7309 61.1733 25.941V23.16H60.5611V25.9382C60.5611 26.3768 60.3397 26.611 59.9488 26.611C59.5989 26.611 59.3611 26.3931 59.3529 26.069H58.7516ZM61.9742 26.0336C62.0179 26.7363 62.6056 27.1857 63.4803 27.1857C64.4151 27.1857 65 26.7145 65 25.9628C65 25.3717 64.6665 25.0449 63.8575 24.8569L63.4229 24.7507C62.909 24.6308 62.7013 24.4701 62.7013 24.1896C62.7013 23.8355 63.0238 23.604 63.5076 23.604C63.9668 23.604 64.2839 23.8301 64.3413 24.1923H64.9371C64.9016 23.5305 64.3167 23.0647 63.5158 23.0647C62.6548 23.0647 62.0808 23.5305 62.0808 24.2305C62.0808 24.8079 62.4061 25.1511 63.1195 25.3172L63.6279 25.4398C64.1499 25.5624 64.3795 25.7421 64.3795 26.0417C64.3795 26.3904 64.0187 26.6437 63.5267 26.6437C62.9992 26.6437 62.6329 26.4067 62.581 26.0336H61.9742Z" fill="currentColor"/>
</svg>
