<svg width="26" height="29" viewBox="0 0 26 29" fill="none" xmlns="http://www.w3.org/2000/svg">
<path d="M14.1725 0.811355C13.4627 0.412164 12.5373 0.413959 11.8269 0.811355C8.26887 2.7749 4.71082 4.73904 1.15216 6.70169C0.459691 7.06598 -0.00736134 7.80962 8.78288e-05 8.58147V20.4454C-0.0049123 21.2323 0.486223 21.9831 1.19655 22.3424C2.21871 22.8862 3.2118 23.4853 4.25244 23.9929C5.45451 24.5835 6.95843 24.7142 8.17519 24.0982C9.16287 23.5876 9.60155 22.4521 9.60033 21.4086C9.60829 17.4932 9.60155 13.5777 9.60339 9.66227C9.62686 9.48825 9.49624 9.30227 9.30644 9.30646C8.85174 9.29928 8.39642 9.30227 7.94172 9.30526C7.76987 9.28901 7.60222 9.43171 7.61518 9.60443C7.60905 13.4946 7.6164 17.386 7.6115 21.2768C7.6214 21.815 7.25782 22.3323 6.73913 22.5141C5.5412 22.9339 2.12198 20.7139 2.12198 20.7139C1.9965 20.6557 1.91682 20.5197 1.92912 20.3845C1.92912 16.4703 1.92973 12.5559 1.92912 8.6423C1.91187 8.48454 2.00912 8.34243 2.15402 8.27801C5.70033 6.32604 9.24481 4.36917 12.7911 2.416C12.9143 2.33379 13.086 2.33404 13.2089 2.4166C16.7552 4.36917 20.3003 6.32424 23.8472 8.27632C23.9926 8.34064 24.0857 8.48514 24.0709 8.6423C24.0703 12.5559 24.0721 16.4703 24.0697 20.3839C24.0802 20.5224 24.0086 20.6566 23.8793 20.7175C20.3661 22.6588 16.8129 24.5376 13.3315 26.5354C13.1796 26.6225 13.0075 26.7213 12.8373 26.6252C11.9218 26.1189 11.0174 25.5927 10.1049 25.0814C10.0057 25.0195 9.87942 24.993 9.77594 25.0622C9.36676 25.2778 8.98203 25.4524 8.51224 25.6384C7.85236 25.8996 7.95783 26.0064 8.55285 26.3531C9.62002 26.957 10.6889 27.5586 11.756 28.1631C12.4585 28.6015 13.4024 28.6327 14.1275 28.2275C17.6861 26.2664 21.2436 24.303 24.8029 22.3419C25.5113 21.9806 26.0049 21.2328 25.9999 20.4453V8.58147C26.0068 7.82527 25.5576 7.0949 24.886 6.72523C21.3156 4.75211 17.7435 2.78328 14.1725 0.811355Z" fill="#8CC84B"/>
<path d="M19.5419 9.71888C18.1452 8.97166 16.4836 8.93187 14.9315 9.0295C13.8102 9.14029 12.6309 9.44973 11.814 10.2535C10.9761 11.0615 10.7937 12.3663 11.1917 13.4212C11.4769 14.1665 12.1948 14.6512 12.9372 14.9076C13.8935 15.2452 14.8979 15.3496 15.9026 15.454C16.819 15.5493 17.7357 15.6445 18.6165 15.9168C18.9763 16.0361 19.3953 16.2185 19.5055 16.6099C19.6073 17.0735 19.4957 17.6124 19.1193 17.9345C17.9237 18.8808 14.5979 18.7358 13.4166 17.991C12.939 17.6737 12.7332 17.112 12.6495 16.5768C12.6402 16.4099 12.5059 16.257 12.3248 16.2696C11.8713 16.2642 11.4178 16.2654 10.9643 16.269C10.8061 16.2558 10.6416 16.3684 10.6329 16.5298C10.5397 18.9815 12.7914 20.0503 14.9039 20.2856C16.1108 20.4006 17.3442 20.394 18.5327 20.1351C19.4261 19.9316 20.3219 19.5571 20.9369 18.8689C21.6953 18.0326 21.8444 16.7875 21.5043 15.7458C21.2443 14.9686 20.5012 14.4699 19.7416 14.2135C18.7086 13.8593 17.4844 13.6689 16.5488 13.5798C15.1889 13.4502 13.5729 13.5031 13.188 12.6095C13.0345 12.1416 13.1651 11.5606 13.5951 11.2728C14.7328 10.5011 17.0483 10.6036 18.2265 11.1801C18.7675 11.4511 19.081 12.0074 19.2104 12.5691C19.2344 12.7342 19.3454 12.9063 19.5364 12.8991C19.9868 12.9081 20.4372 12.9015 20.8875 12.9021C21.0422 12.913 21.2116 12.8256 21.2418 12.6673C21.2227 11.4932 20.6232 10.2915 19.5419 9.71888Z" fill="#8CC84B"/>
</svg>
