<svg width="924" height="486" viewBox="0 0 924 486" fill="none" xmlns="http://www.w3.org/2000/svg">
<path d="M0 242.786C0 376.872 206.642 485.573 461.538 485.573C716.434 485.573 923.077 376.872 923.077 242.786C923.077 108.702 716.434 -9.36424e-05 461.538 -9.36424e-05C206.642 -9.36424e-05 0 108.702 0 242.786" fill="url(#paint0_radial_126_120)"/>
<path d="M461.537 467.545C706.477 467.545 905.046 366.918 905.046 242.786C905.046 118.654 706.477 18.0253 461.537 18.0253C216.597 18.0253 18.0283 118.654 18.0283 242.785C18.0283 366.918 216.597 467.549 461.537 467.549" fill="#777BB3"/>
<path d="M250.757 270.653C270.897 270.653 285.933 266.938 295.447 259.618C304.858 252.37 311.359 239.815 314.766 222.302C317.943 205.932 316.732 194.502 311.17 188.334C305.483 182.034 293.186 178.839 274.623 178.839H242.439L224.593 270.653H250.757ZM145.484 383.75C144.745 383.75 144.015 383.587 143.347 383.272C142.679 382.957 142.089 382.498 141.619 381.928C141.149 381.358 140.812 380.691 140.63 379.975C140.449 379.259 140.428 378.512 140.569 377.787L187.858 134.482C188.08 133.34 188.691 132.312 189.588 131.572C190.485 130.833 191.612 130.428 192.774 130.428H294.694C326.725 130.428 350.567 139.126 365.552 156.281C380.618 173.527 385.27 197.634 379.379 227.931C376.982 240.274 372.859 251.737 367.126 262.002C361.384 272.275 353.797 281.784 344.57 290.264C333.526 300.599 321.026 308.094 307.451 312.504C294.091 316.856 276.935 319.065 256.456 319.065H215.187L203.401 379.697C203.18 380.838 202.568 381.866 201.672 382.606C200.775 383.345 199.649 383.75 198.487 383.75H145.484Z" fill="black"/>
<path d="M246.567 183.847H274.625C297.028 183.847 304.812 188.763 307.456 191.693C311.843 196.557 312.671 206.814 309.852 221.352C306.683 237.628 300.81 249.168 292.394 255.649C283.777 262.283 269.767 265.645 250.759 265.645H230.668L246.567 183.847ZM294.694 125.42H192.774C190.45 125.42 188.197 126.229 186.403 127.708C184.609 129.186 183.386 131.243 182.942 133.525L135.656 376.831C135.375 378.281 135.417 379.775 135.781 381.206C136.145 382.638 136.821 383.972 137.76 385.111C138.7 386.251 139.88 387.169 141.215 387.799C142.551 388.429 144.01 388.756 145.487 388.756H198.489C200.813 388.757 203.065 387.948 204.859 386.47C206.653 384.991 207.877 382.935 208.321 380.653L219.318 324.071H256.46C277.463 324.071 295.145 321.781 309.009 317.265C323.265 312.633 336.384 304.779 347.994 293.921C357.596 285.087 365.505 275.171 371.498 264.446C377.491 253.717 381.798 241.753 384.299 228.886C390.5 196.995 385.462 171.457 369.325 152.988C353.348 134.695 328.238 125.42 294.697 125.42H294.694ZM218.521 275.661H250.76C272.128 275.661 288.047 271.636 298.503 263.585C308.965 255.532 316.02 242.092 319.686 223.258C323.191 205.176 321.595 192.416 314.893 184.981C308.182 177.549 294.761 173.829 274.627 173.829H238.312L218.521 275.659V275.661ZM294.697 135.435C325.358 135.435 347.725 143.481 361.785 159.577C375.84 175.669 380.075 198.135 374.466 226.976C372.158 238.857 368.253 249.719 362.756 259.56C357.252 269.407 350.066 278.412 341.185 286.576C330.601 296.48 318.844 303.537 305.907 307.742C292.97 311.957 276.492 314.055 256.46 314.055H211.06L198.489 378.742H145.487L192.774 135.436H294.696" fill="white"/>
<path d="M500.906 319.063C499.41 319.063 497.993 318.396 497.043 317.241C496.572 316.671 496.234 316.005 496.051 315.289C495.869 314.573 495.848 313.826 495.989 313.101L516.908 205.447C518.898 195.209 518.407 187.86 515.527 184.755C513.764 182.857 508.469 179.674 492.813 179.674H454.915L428.615 315.01C428.393 316.152 427.782 317.18 426.885 317.92C425.988 318.659 424.861 319.063 423.699 319.063H371.115C370.376 319.064 369.646 318.901 368.978 318.586C368.309 318.271 367.719 317.813 367.249 317.242C366.779 316.672 366.441 316.005 366.26 315.289C366.078 314.573 366.057 313.826 366.199 313.101L413.487 69.795C413.709 68.6538 414.321 67.6253 415.218 66.8858C416.115 66.1463 417.241 65.7418 418.404 65.7418H470.988C471.726 65.7418 472.456 65.9052 473.124 66.2203C473.792 66.5353 474.382 66.9942 474.852 67.5641C475.322 68.134 475.66 68.8007 475.842 69.5166C476.023 70.2325 476.045 70.9797 475.904 71.7047L464.492 130.429H505.261C536.319 130.429 557.379 135.904 569.645 147.169C582.149 158.66 586.05 177.035 581.242 201.789L559.24 315.01C559.019 316.152 558.407 317.18 557.51 317.92C556.613 318.659 555.487 319.063 554.324 319.063H500.906Z" fill="black"/>
<path d="M470.987 60.7336H418.403C416.078 60.7335 413.826 61.5421 412.032 63.0208C410.238 64.4995 409.015 66.5562 408.571 68.8383L361.282 312.144C360.999 313.594 361.041 315.089 361.405 316.521C361.768 317.953 362.444 319.287 363.384 320.428C364.324 321.568 365.504 322.486 366.841 323.116C368.177 323.746 369.637 324.072 371.114 324.071H423.698C426.023 324.071 428.276 323.263 430.07 321.784C431.863 320.305 433.087 318.249 433.531 315.967L459.043 184.682H492.814C508.442 184.682 511.722 188.02 511.854 188.164C512.802 189.182 514.049 193.907 511.991 204.49L491.074 312.146C490.792 313.596 490.834 315.09 491.198 316.522C491.561 317.954 492.237 319.288 493.177 320.428C494.117 321.568 495.297 322.486 496.634 323.116C497.97 323.746 499.429 324.072 500.907 324.071H554.326C556.65 324.071 558.903 323.263 560.697 321.784C562.491 320.305 563.714 318.249 564.158 315.967L586.156 202.744C591.32 176.167 586.903 156.23 573.035 143.483C559.799 131.328 537.63 125.42 505.26 125.42H470.565L480.82 72.6611C481.101 71.2109 481.059 69.7163 480.695 68.2845C480.331 66.8527 479.655 65.5192 478.716 64.3793C477.776 63.2394 476.596 62.3214 475.26 61.6911C473.924 61.0608 472.465 60.7339 470.987 60.7336V60.7336ZM470.987 70.7497L458.417 135.436H505.26C534.736 135.436 555.067 140.581 566.258 150.858C577.446 161.141 580.798 177.801 576.326 200.834L554.324 314.055H500.905L521.824 206.403C524.204 194.157 523.329 185.804 519.196 181.35C515.061 176.896 506.265 174.666 492.812 174.666H450.787L423.7 314.055H371.116L418.405 70.7497H470.989" fill="white"/>
<path d="M664.445 270.653C684.586 270.653 699.621 266.938 709.133 259.618C718.547 252.373 725.047 239.817 728.456 222.302C731.632 205.932 730.422 194.502 724.858 188.334C719.171 182.034 706.875 178.839 688.312 178.839H656.125L638.28 270.653H664.445ZM559.173 383.75C558.435 383.75 557.705 383.587 557.037 383.272C556.369 382.957 555.779 382.498 555.309 381.928C554.839 381.358 554.501 380.692 554.319 379.976C554.137 379.26 554.116 378.512 554.257 377.787L601.546 134.482C601.769 133.34 602.381 132.312 603.278 131.573C604.175 130.833 605.301 130.429 606.464 130.428H708.382C740.415 130.428 764.255 139.126 779.242 156.281C794.308 173.526 798.957 197.632 793.069 227.931C790.669 240.274 786.547 251.737 780.813 262.002C775.07 272.275 767.485 281.784 758.258 290.264C747.214 300.599 734.714 308.094 721.139 312.504C707.779 316.856 690.622 319.065 670.144 319.065H628.872L617.091 379.697C616.869 380.838 616.257 381.867 615.36 382.606C614.462 383.346 613.336 383.75 612.173 383.75H559.173Z" fill="black"/>
<path d="M660.255 183.847H688.312C710.716 183.847 718.498 188.763 721.142 191.693C725.533 196.557 726.359 206.814 723.538 221.35C720.369 237.626 714.495 249.168 706.08 255.649C697.463 262.283 683.454 265.645 664.447 265.645H644.358L660.255 183.847ZM708.382 125.42H606.462C604.138 125.421 601.886 126.229 600.092 127.708C598.299 129.187 597.075 131.243 596.632 133.525L549.344 376.831C549.063 378.281 549.105 379.775 549.469 381.206C549.833 382.638 550.509 383.972 551.448 385.111C552.388 386.251 553.568 387.169 554.903 387.799C556.239 388.429 557.698 388.756 559.175 388.756H612.177C614.501 388.757 616.753 387.948 618.547 386.47C620.341 384.991 621.565 382.935 622.009 380.653L633.005 324.071H670.148C691.149 324.071 708.831 321.781 722.695 317.265C736.953 312.633 750.074 304.777 761.684 293.918C771.286 285.086 779.192 275.171 785.185 264.446C791.179 253.717 795.486 241.753 797.985 228.886C804.187 196.993 799.149 171.456 783.013 152.986C767.034 134.695 741.926 125.42 708.384 125.42H708.382ZM632.209 275.661H664.447C685.816 275.661 701.733 271.636 712.191 263.585C722.653 255.532 729.706 242.092 733.372 223.258C736.881 205.176 735.283 192.416 728.581 184.981C721.87 177.549 708.449 173.829 688.313 173.829H651.998L632.209 275.659V275.661ZM708.384 135.435C739.044 135.435 761.412 143.481 775.471 159.577C789.53 175.669 793.762 198.135 788.153 226.976C785.844 238.857 781.94 249.719 776.442 259.56C770.939 269.407 763.752 278.412 754.871 286.576C744.288 296.48 732.531 303.537 719.593 307.742C706.656 311.957 690.18 314.055 670.148 314.055H624.747L612.177 378.742H559.175L606.464 135.436H708.384" fill="white"/>
<defs>
<radialGradient id="paint0_radial_126_120" cx="0" cy="0" r="1" gradientUnits="userSpaceOnUse" gradientTransform="translate(277.11 85.3563) scale(606.065)">
<stop stop-color="#AEB2D5"/>
<stop offset="0.3" stop-color="#AEB2D5"/>
<stop offset="0.75" stop-color="#484C89"/>
<stop offset="1" stop-color="#484C89"/>
</radialGradient>
</defs>
</svg>
