<svg width="30" height="27" viewBox="0 0 30 27" fill="none" xmlns="http://www.w3.org/2000/svg">
<path d="M17.6789 13.4885C17.6789 12.0541 16.4796 10.8912 15 10.8912C13.5206 10.8912 12.3211 12.0541 12.3211 13.4885C12.3211 14.9231 13.5206 16.086 15 16.086C16.4796 16.086 17.6789 14.9231 17.6789 13.4885Z" fill="#53C1DE"/>
<path fill-rule="evenodd" clip-rule="evenodd" d="M23.7004 8.66634C24.2661 6.43742 24.9772 2.30412 22.4704 0.902795C19.9753 -0.492418 16.7284 2.18106 15.0139 3.78582C13.3044 2.19705 9.96635 -0.464999 7.46163 0.94077C4.96751 2.34066 5.73664 6.40543 6.3149 8.64831C3.98831 9.28904 0 10.669 0 13.4885C0 16.3 3.98416 17.8014 6.29698 18.4415C5.71658 20.6968 4.98596 24.7036 7.48327 26.1003C9.99727 27.5058 13.325 24.9071 15.0554 23.2848C16.7809 24.899 19.9966 27.5147 22.4922 26.1141C24.9956 24.7089 24.3436 20.631 23.7653 18.3751C26.0073 17.7336 30 16.265 30 13.4885C30 10.6961 25.9903 9.30491 23.7004 8.66634ZM23.4162 17.1796C23.0365 16.0142 22.524 14.7749 21.8971 13.4947C22.4955 12.2448 22.9881 11.0214 23.3572 9.86352C25.0359 10.3354 28.7185 11.4139 28.7185 13.4885C28.7185 15.5826 25.1846 16.6713 23.4162 17.1796ZM21.85 25.0387C19.988 26.0836 17.2221 23.5823 15.9478 22.3935C16.7932 21.4971 17.638 20.4549 18.4625 19.2976C19.9129 19.1728 21.283 18.9688 22.5256 18.6904C22.9326 20.286 23.7202 23.9889 21.85 25.0387ZM8.12362 25.0237C6.26143 23.9827 7.11258 20.4073 7.53957 18.746C8.76834 19.0095 10.1286 19.1991 11.5824 19.3134C12.4123 20.4458 13.2816 21.4868 14.1576 22.3983C13.0753 23.4134 9.99451 26.0696 8.12362 25.0237ZM1.28149 13.4885C1.28149 11.3866 4.94207 10.316 6.65904 9.84524C7.03451 11.0292 7.52695 12.267 8.12123 13.5188C7.51925 14.7892 7.01977 16.0468 6.64085 17.2446C5.00369 16.7903 1.28149 15.5918 1.28149 13.4885ZM8.1037 2.01618C9.97351 0.966798 12.8747 3.52246 14.1159 4.67276C13.2444 5.58018 12.3831 6.61323 11.5603 7.7391C10.1494 7.8659 8.79875 8.06955 7.55709 8.34232C7.09125 6.53335 6.23592 3.06442 8.1037 2.01618ZM19.3793 9.08973C20.3365 9.20687 21.2536 9.36263 22.1147 9.55328C21.8562 10.3567 21.534 11.1968 21.1545 12.058C20.6044 11.0459 20.0139 10.0542 19.3793 9.08973ZM15.0143 5.56074C15.6054 6.1816 16.1974 6.87494 16.7798 7.6271C15.5985 7.57298 14.4153 7.57273 13.234 7.62633C13.8169 6.88112 14.414 6.18881 15.0143 5.56074ZM8.8565 12.0571C8.48329 11.1988 8.16398 10.355 7.90322 9.54015C8.75918 9.35439 9.67197 9.20262 10.623 9.08741C9.98662 10.0498 9.3971 11.0411 8.8565 12.0571ZM10.6503 17.9784C9.66786 17.872 8.74126 17.728 7.88556 17.5474C8.15044 16.7181 8.47678 15.8561 8.85796 14.9795C9.40603 16.0059 10.0045 17.0069 10.6503 17.9784ZM15.0498 21.5041C14.4424 20.8686 13.8365 20.1657 13.2448 19.4097C14.4328 19.455 15.6231 19.4551 16.811 19.4037C16.2268 20.1735 15.6369 20.8773 15.0498 21.5041ZM21.1667 14.9348C21.5677 15.821 21.9057 16.6783 22.1742 17.4936C21.3043 17.686 20.3652 17.841 19.3757 17.9561C20.015 16.9734 20.6149 15.9662 21.1667 14.9348ZM17.7473 18.1067C15.9301 18.2326 14.1016 18.2313 12.2838 18.117C11.2509 16.6541 10.3314 15.1156 9.53774 13.5184C10.3276 11.9245 11.2404 10.3891 12.2684 8.92843C14.0875 8.79509 15.9178 8.79478 17.7369 8.9292C18.7561 10.3898 19.6675 11.9212 20.4757 13.5008C19.6771 15.0939 18.7595 16.6324 17.7473 18.1067ZM21.8303 1.97923C23.7006 3.02517 22.8681 6.7399 22.4595 8.3552C21.2149 8.07676 19.8633 7.8695 18.4483 7.74077C17.6239 6.60268 16.7698 5.56782 15.9124 4.67212C17.1695 3.49704 19.9781 0.943522 21.8303 1.97923Z" fill="#53C1DE"/>
</svg>
