<svg width="250" height="187" viewBox="0 0 250 187" fill="none" xmlns="http://www.w3.org/2000/svg">
<path d="M215.133 107.482C206.416 107.528 198.841 109.623 192.497 112.719C190.17 108.12 187.842 104.021 187.431 101.015C186.975 97.5081 186.427 95.3676 186.975 91.1776C187.523 86.9876 189.987 81.0215 189.941 80.5661C189.896 80.1106 189.394 77.9701 184.374 77.9246C179.354 77.879 175.018 78.881 174.516 80.2017C174.014 81.5225 173.056 84.5283 172.417 87.6252C171.55 92.1795 162.377 108.438 157.128 116.955C155.44 113.63 153.979 110.716 153.66 108.393C153.203 104.886 152.656 102.746 153.203 98.5556C153.751 94.3656 156.216 88.3995 156.17 87.944C156.124 87.4886 155.622 85.3481 150.602 85.3025C145.582 85.257 141.247 86.2589 140.745 87.5797C140.243 88.9004 139.695 91.9974 138.645 95.0032C137.596 98.0091 125.41 125.153 122.216 132.166C120.573 135.764 119.158 138.634 118.154 140.592C118.154 140.592 118.109 140.728 117.972 140.956C117.105 142.641 116.603 143.552 116.603 143.552C116.603 143.552 116.603 143.552 116.603 143.598C115.918 144.827 115.188 145.966 114.823 145.966C114.549 145.966 114.047 142.687 114.914 138.224C116.739 128.796 121.075 114.131 121.029 113.63C121.029 113.357 121.851 110.807 118.2 109.486C114.64 108.165 113.362 110.351 113.043 110.351C112.723 110.351 112.495 111.125 112.495 111.125C112.495 111.125 116.466 94.6389 104.919 94.6389C97.7088 94.6389 87.7599 102.518 82.8311 109.623C79.7278 111.308 73.1104 114.906 66.0366 118.777C63.344 120.28 60.5602 121.783 57.9589 123.194C57.7763 123.012 57.5938 122.785 57.4112 122.602C43.4463 107.71 17.6157 97.1893 18.711 77.1959C19.1217 69.909 21.6317 50.7809 68.3185 27.5539C106.745 8.65348 137.322 13.8909 142.616 25.5044C150.191 42.0821 126.232 72.8693 86.5277 77.3325C71.3762 79.0176 63.4353 73.1881 61.4273 71.002C59.328 68.7248 59.0085 68.5882 58.2327 69.0437C56.9549 69.7268 57.7763 71.7762 58.2327 72.9604C59.4193 76.0573 64.3024 81.5225 72.5627 84.2095C79.8647 86.5777 97.6175 87.8985 119.113 79.6096C143.163 70.3189 161.966 44.4959 156.444 22.8629C150.922 0.911155 114.412 -6.3302 79.8647 5.9209C59.328 13.2078 37.0571 24.6847 21.0385 39.6228C2.00779 57.3846 -1.00426 72.8237 0.227944 79.2908C4.65474 102.245 36.3725 117.183 49.0596 128.25C48.4207 128.614 47.8274 128.933 47.3254 129.206C40.9819 132.349 16.7942 144.964 10.7701 158.308C3.92455 173.428 11.8654 184.268 17.1137 185.725C33.4061 190.234 50.1549 182.127 59.1454 168.738C68.1359 155.348 67.0407 137.95 62.8877 129.98C62.842 129.889 62.7964 129.798 62.7051 129.707C64.3481 128.751 66.0366 127.749 67.6796 126.792C70.9198 124.879 74.1144 123.103 76.8526 121.646C75.301 125.881 74.16 130.937 73.6124 138.224C72.9278 146.786 76.4419 157.898 81.0512 162.27C83.1049 164.183 85.5237 164.229 87.0753 164.229C92.4605 164.229 94.8793 159.766 97.5719 154.483C100.858 148.015 103.824 140.501 103.824 140.501C103.824 140.501 100.128 160.813 110.168 160.813C113.819 160.813 117.515 156.077 119.158 153.663C119.158 153.708 119.158 153.708 119.158 153.708C119.158 153.708 119.249 153.572 119.432 153.253C119.797 152.661 120.025 152.296 120.025 152.296C120.025 152.296 120.025 152.251 120.025 152.205C121.486 149.655 124.772 143.871 129.655 134.261C135.953 121.874 142.022 106.389 142.022 106.389C142.022 106.389 142.57 110.169 144.441 116.454C145.536 120.143 147.818 124.196 149.644 128.113C148.183 130.162 147.271 131.301 147.271 131.301C147.271 131.301 147.271 131.301 147.316 131.347C146.13 132.895 144.852 134.58 143.437 136.22C138.463 142.14 132.53 148.926 131.708 150.885C130.75 153.207 130.978 154.892 132.804 156.259C134.127 157.261 136.5 157.397 138.919 157.261C143.392 156.942 146.54 155.849 148.092 155.166C150.511 154.3 153.34 152.98 155.987 151.021C160.871 147.423 163.837 142.277 163.563 135.491C163.426 131.756 162.194 128.022 160.688 124.515C161.144 123.878 161.555 123.24 162.011 122.602C169.724 111.353 175.703 99.011 175.703 99.011C175.703 99.011 176.25 102.791 178.121 109.076C179.034 112.264 180.905 115.725 182.548 119.096C175.292 124.971 170.819 131.802 169.222 136.265C166.347 144.554 168.583 148.289 172.827 149.154C174.744 149.564 177.482 148.653 179.49 147.788C182.046 146.968 185.058 145.556 187.933 143.461C192.816 139.863 197.517 134.853 197.243 128.068C197.106 124.971 196.285 121.919 195.144 118.959C201.305 116.408 209.246 114.997 219.377 116.181C241.101 118.731 245.39 132.257 244.569 137.95C243.748 143.643 239.184 146.74 237.678 147.697C236.172 148.653 235.67 148.972 235.807 149.655C235.989 150.657 236.719 150.611 237.997 150.429C239.777 150.11 249.407 145.829 249.817 135.354C250.502 121.965 237.723 107.345 215.133 107.482ZM47.5536 163.864C40.343 171.698 30.3028 174.658 25.9673 172.153C21.3123 169.466 23.1378 157.898 31.9914 149.609C37.3765 144.554 44.3134 139.863 48.9227 136.994C49.9724 136.356 51.524 135.445 53.3952 134.307C53.7146 134.125 53.8972 134.034 53.8972 134.034C54.2623 133.806 54.6274 133.578 54.9925 133.351C58.2327 145.192 55.1294 155.621 47.5536 163.864ZM100.036 128.25C97.5262 134.352 92.278 149.974 89.0834 149.108C86.3451 148.38 84.6566 136.539 88.5357 124.834C90.4981 118.959 94.6511 111.945 97.0699 109.213C100.995 104.841 105.33 103.383 106.38 105.159C107.703 107.482 101.588 124.424 100.036 128.25ZM143.346 148.926C142.296 149.473 141.292 149.837 140.836 149.564C140.516 149.382 141.292 148.653 141.292 148.653C141.292 148.653 146.723 142.823 148.868 140.182C150.1 138.634 151.561 136.812 153.112 134.762C153.112 134.945 153.112 135.172 153.112 135.354C153.112 142.323 146.358 147.013 143.346 148.926ZM176.752 141.321C175.976 140.774 176.113 138.952 178.715 133.259C179.719 131.028 182.092 127.293 186.153 123.695C186.61 125.153 186.929 126.565 186.884 127.885C186.838 136.675 180.54 139.954 176.752 141.321Z" fill="#CD6799"/>
</svg>
