<svg width="40" height="25" viewBox="0 0 40 25" fill="none" xmlns="http://www.w3.org/2000/svg">
<path fill-rule="evenodd" clip-rule="evenodd" d="M20 0.512634C14.6667 0.512634 11.3333 3.1793 10 8.51264C12 5.84597 14.3333 4.84597 17 5.51263C18.5215 5.89263 19.6089 6.99708 20.8126 8.21856C22.7733 10.2089 25.043 12.5126 30 12.5126C35.3333 12.5126 38.6667 9.84597 40 4.51263C38 7.1793 35.6667 8.1793 33 7.51263C31.4785 7.13263 30.3911 6.02819 29.1874 4.80671C27.2267 2.81634 24.957 0.512634 20 0.512634ZM10 12.5126C4.66667 12.5126 1.33333 15.1793 0 20.5126C2 17.846 4.33333 16.846 7 17.5126C8.52148 17.8934 9.60889 18.9971 10.8126 20.2186C12.7733 22.2089 15.043 24.5126 20 24.5126C25.3333 24.5126 28.6667 21.846 30 16.5126C28 19.1793 25.6667 20.1793 23 19.5126C21.4785 19.1326 20.3911 18.0282 19.1874 16.8067C17.2267 14.8163 14.957 12.5126 10 12.5126Z" fill="#38BDF8"/>
</svg>
