<svg width="28" height="29" viewBox="0 0 28 29" fill="none" xmlns="http://www.w3.org/2000/svg">
<path d="M25.2656 0.512634H2.73438C1.22422 0.512634 0 1.73686 0 3.24701V25.7783C0 27.2884 1.22422 28.5126 2.73438 28.5126H25.2656C26.7758 28.5126 28 27.2884 28 25.7783V3.24701C28 1.73686 26.7758 0.512634 25.2656 0.512634Z" fill="#3178C6"/>
<path d="M25.2656 0.512634H2.73438C1.22422 0.512634 0 1.73686 0 3.24701V25.7783C0 27.2884 1.22422 28.5126 2.73438 28.5126H25.2656C26.7758 28.5126 28 27.2884 28 25.7783V3.24701C28 1.73686 26.7758 0.512634 25.2656 0.512634Z" fill="#3178C6"/>
<path fill-rule="evenodd" clip-rule="evenodd" d="M17.3326 22.7936V25.5313C17.7776 25.7595 18.304 25.9306 18.9117 26.0446C19.5194 26.1587 20.1598 26.2158 20.8331 26.2158C21.4893 26.2158 22.1127 26.153 22.7032 26.0275C23.2938 25.9021 23.8116 25.6953 24.2567 25.4073C24.7017 25.1193 25.0541 24.7428 25.3137 24.278C25.5733 23.8131 25.7031 23.2385 25.7031 22.5541C25.7031 22.0579 25.629 21.623 25.4806 21.2494C25.3322 20.8759 25.1183 20.5436 24.8387 20.2527C24.5591 19.9619 24.2239 19.7009 23.833 19.4699C23.4422 19.2389 23.0014 19.0207 22.5107 18.8154C22.1512 18.6671 21.8288 18.5231 21.5435 18.3834C21.2582 18.2436 21.0157 18.1011 20.816 17.9557C20.6163 17.8102 20.4623 17.6562 20.3539 17.4937C20.2455 17.3311 20.1912 17.1472 20.1912 16.9418C20.1912 16.7536 20.2397 16.5839 20.3368 16.4328C20.4338 16.2816 20.5707 16.1519 20.7476 16.0435C20.9245 15.9352 21.1413 15.851 21.398 15.7911C21.6548 15.7312 21.9401 15.7013 22.2539 15.7013C22.4821 15.7013 22.7232 15.7184 22.9771 15.7526C23.231 15.7869 23.4864 15.8396 23.7432 15.9109C23.9999 15.9822 24.2495 16.072 24.4921 16.1804C24.7346 16.2888 24.9585 16.4142 25.1639 16.5569V13.9988C24.7474 13.8391 24.2924 13.7208 23.7988 13.6438C23.3052 13.5668 22.7389 13.5283 22.0999 13.5283C21.4494 13.5283 20.8331 13.5981 20.2512 13.7379C19.6692 13.8776 19.1571 14.0958 18.7148 14.3923C18.2726 14.6889 17.9232 15.0668 17.6664 15.5259C17.4097 15.985 17.2812 16.534 17.2812 17.1728C17.2812 17.9884 17.5166 18.6843 17.9874 19.2603C18.4581 19.8364 19.1727 20.324 20.1313 20.7233C20.5079 20.8773 20.8589 21.0284 21.1841 21.1767C21.5093 21.325 21.7903 21.479 22.0271 21.6387C22.2639 21.7984 22.4507 21.9723 22.5877 22.1606C22.7247 22.3488 22.7931 22.5626 22.7931 22.8022C22.7931 22.979 22.7503 23.143 22.6647 23.2941C22.5792 23.4453 22.4493 23.5764 22.2753 23.6877C22.1013 23.7989 21.8845 23.8859 21.6249 23.9486C21.3652 24.0114 21.0614 24.0427 20.7133 24.0427C20.1199 24.0427 19.5322 23.9386 18.9502 23.7304C18.3682 23.5223 17.829 23.21 17.3326 22.7936ZM12.7302 16.0484H16.2422V13.8017H6.45312V16.0484H9.94798V26.0517H12.7302V16.0484Z" fill="white"/>
</svg>
