<svg width="256" height="256" viewBox="0 0 256 256" fill="none" xmlns="http://www.w3.org/2000/svg">
<mask id="mask0_126_91" style="mask-type:alpha" maskUnits="userSpaceOnUse" x="0" y="0" width="256" height="256">
<path fill-rule="evenodd" clip-rule="evenodd" d="M181.53 254.25C185.56 255.82 190.16 255.72 194.23 253.76L246.94 228.4C252.48 225.74 256 220.13 256 213.98V42.0199C256 35.8699 252.48 30.2699 246.94 27.5999L194.23 2.23993C188.89 -0.330071 182.64 0.299929 177.95 3.70993C177.28 4.19993 176.64 4.73993 176.04 5.33993L75.1502 97.3899L31.2002 64.0199C27.1102 60.9099 21.3902 61.1699 17.5902 64.6299L3.49022 77.4499C-1.15978 81.6799 -1.15978 88.9899 3.48022 93.2199L41.5902 128L3.48022 162.77C-1.15978 167.01 -1.15978 174.32 3.49022 178.55L17.5902 191.37C21.3902 194.83 27.1102 195.08 31.2002 191.98L75.1502 158.62L176.05 250.67C177.65 252.26 179.52 253.47 181.53 254.25ZM192.04 69.8899L115.48 128L192.04 186.12V69.8899V69.8899Z" fill="white"/>
</mask>
<g mask="url(#mask0_126_91)">
<path d="M246.94 27.6396L194.19 2.23959C188.09 -0.700407 180.79 0.539593 176 5.32959L3.32006 162.77C-1.31994 167.01 -1.31994 174.32 3.33006 178.55L17.4301 191.37C21.2301 194.83 26.9601 195.08 31.0501 191.98L239 34.2296C245.98 28.9396 256 33.9096 256 42.6696V42.0596C256 35.9096 252.48 30.2996 246.94 27.6396Z" fill="#0065A9"/>
<path d="M246.94 228.36L194.19 253.76C188.09 256.7 180.79 255.46 176 250.67L3.32006 93.2298C-1.31994 88.9998 -1.31994 81.6798 3.33006 77.4598L17.4301 64.6398C21.2301 61.1798 26.9601 60.9298 31.0501 64.0298L239 221.77C245.98 227.06 256 222.09 256 213.33V213.94C256 220.09 252.48 225.7 246.94 228.36Z" fill="#007ACC"/>
<path d="M194.2 253.76C188.09 256.7 180.8 255.46 176 250.66C181.9 256.56 192 252.38 192 244.03V11.9598C192 3.60976 181.9 -0.570242 176 5.32976C180.79 0.539758 188.09 -0.700242 194.2 2.22976L246.94 27.5898C252.48 30.2598 256.01 35.8598 256.01 42.0098V213.98C256.01 220.13 252.49 225.73 246.94 228.4L194.2 253.76Z" fill="#1F9CF0"/>
<g opacity="0.25">
<path opacity="0.25" fill-rule="evenodd" clip-rule="evenodd" d="M181.38 254.25C185.41 255.82 190.01 255.72 194.08 253.76L246.79 228.4C252.33 225.74 255.85 220.13 255.85 213.98V42.0199C255.85 35.8699 252.33 30.2699 246.79 27.5999L194.08 2.23993C188.74 -0.330071 182.49 0.299929 177.8 3.70993C177.13 4.19993 176.49 4.73993 175.89 5.33993L74.9901 97.3899L31.0401 64.0199C26.9501 60.9099 21.2301 61.1699 17.4301 64.6299L3.33006 77.4499C-1.31994 81.6799 -1.31994 88.9899 3.32006 93.2299L41.4401 128L3.32006 162.77C-1.31994 167.01 -1.31994 174.32 3.33006 178.55L17.4301 191.37C21.2301 194.83 26.9501 195.08 31.0401 191.98L74.9901 158.62L175.89 250.67C177.49 252.26 179.36 253.47 181.38 254.25ZM191.88 69.8899L115.32 128L191.88 186.12V69.8899Z" fill="url(#paint0_linear_126_91)"/>
</g>
</g>
<defs>
<linearGradient id="paint0_linear_126_91" x1="127.844" y1="0.659929" x2="127.844" y2="255.34" gradientUnits="userSpaceOnUse">
<stop stop-color="white"/>
<stop offset="1" stop-color="white" stop-opacity="0"/>
</linearGradient>
</defs>
</svg>
